<svg width="34" height="34" viewBox="0 0 34 34" fill="none" xmlns="http://www.w3.org/2000/svg">
<path d="M11.0781 25.375C9.31354 25.375 7.97292 24.7219 7.05625 23.4156C6.13958 22.1094 5.70417 20.6427 5.75 19.0156L5.13125 18.0875C4.87917 17.6979 4.46094 16.8156 3.87656 15.4406C3.29219 14.0656 3 12.3354 3 10.25C3 7.88958 3.58437 5.92448 4.75312 4.35469C5.92188 2.7849 7.4 2 9.1875 2C11.1354 2 12.6536 2.8651 13.7422 4.59531C14.8307 6.32552 15.375 8.21042 15.375 10.25C15.375 11.5792 15.1917 12.8052 14.825 13.9281C14.4583 15.051 14.1375 15.9563 13.8625 16.6438L14.1375 17.0906C14.3208 17.4115 14.5729 17.9214 14.8938 18.6203C15.2146 19.3193 15.375 20.0469 15.375 20.8031C15.375 22.1094 14.9682 23.1979 14.1547 24.0688C13.3411 24.9396 12.3156 25.375 11.0781 25.375ZM7.46875 16.575L11.25 15.8188C11.5479 15.0854 11.8516 14.249 12.1609 13.3094C12.4703 12.3698 12.625 11.35 12.625 10.25C12.625 8.875 12.3099 7.61458 11.6797 6.46875C11.0495 5.32292 10.2188 4.75 9.1875 4.75C8.15625 4.75 7.32552 5.32292 6.69531 6.46875C6.0651 7.61458 5.75 8.875 5.75 10.25C5.75 11.6938 5.95052 12.9714 6.35156 14.0828C6.7526 15.1943 7.125 16.025 7.46875 16.575ZM11.0781 22.625C11.5135 22.625 11.8802 22.4646 12.1781 22.1438C12.476 21.8229 12.625 21.376 12.625 20.8031C12.625 20.4135 12.5333 20.0125 12.35 19.6C12.1667 19.1875 11.9833 18.8208 11.8 18.5L8.5 19.1875C8.5 20.1042 8.70052 20.9062 9.10156 21.5938C9.5026 22.2812 10.1615 22.625 11.0781 22.625ZM22.4219 32.25C21.1844 32.25 20.1589 31.8146 19.3453 30.9438C18.5318 30.0729 18.125 28.9844 18.125 27.6781C18.125 26.9219 18.2854 26.1943 18.6063 25.4953C18.9271 24.7964 19.1792 24.2865 19.3625 23.9656L19.6375 23.5188C19.3625 22.8313 19.0417 21.926 18.675 20.8031C18.3083 19.6802 18.125 18.4542 18.125 17.125C18.125 15.0854 18.6693 13.2005 19.7578 11.4703C20.8464 9.7401 22.3646 8.875 24.3125 8.875C26.1 8.875 27.5781 9.6599 28.7469 11.2297C29.9156 12.7995 30.5 14.7646 30.5 17.125C30.5 19.2104 30.2078 20.9349 29.6234 22.2984C29.0391 23.662 28.6208 24.5385 28.3688 24.9281L27.75 25.8906C27.7729 27.5177 27.3318 28.9844 26.4266 30.2906C25.5214 31.5969 24.1865 32.25 22.4219 32.25ZM26.0312 23.45C26.375 22.9 26.7474 22.075 27.1484 20.975C27.5495 19.875 27.75 18.5917 27.75 17.125C27.75 15.75 27.4349 14.4896 26.8047 13.3438C26.1745 12.1979 25.3438 11.625 24.3125 11.625C23.2812 11.625 22.4505 12.1979 21.8203 13.3438C21.1901 14.4896 20.875 15.75 20.875 17.125C20.875 18.225 21.0297 19.2391 21.3391 20.1672C21.6484 21.0953 21.9521 21.9375 22.25 22.6938L26.0312 23.45ZM22.4219 29.5C23.3385 29.5 23.9974 29.1562 24.3984 28.4688C24.7995 27.7812 25 26.9792 25 26.0625L21.7 25.375C21.5167 25.6958 21.3333 26.0625 21.15 26.475C20.9667 26.8875 20.875 27.2885 20.875 27.6781C20.875 28.1365 21.0182 28.5547 21.3047 28.9328C21.5911 29.3109 21.9635 29.5 22.4219 29.5Z" fill="#771646"/>
</svg>
