<svg width="47" height="50" viewBox="0 0 47 50" fill="none" xmlns="http://www.w3.org/2000/svg">
<g id="Group 57">
<path id="Rectangle 23" d="M0 4.50427C0 2.29513 1.79086 0.504272 4 0.504272H47.1795V49.2564H4C1.79086 49.2564 0 47.4655 0 45.2564V4.50427Z" fill="#46463D"/>
<g id="layers">
<mask id="mask0_1806_1108" style="mask-type:alpha" maskUnits="userSpaceOnUse" x="6" y="8" width="35" height="35">
<rect id="Bounding box" x="6.29059" y="8.87607" width="33.812" height="33.812" fill="#D9D9D9"/>
</mask>
<g mask="url(#mask0_1806_1108)">
<g id="layers_2">
<path d="M23.1966 38.532L10.5171 28.6701L12.8417 26.9091L23.1966 34.9394L33.5515 26.9091L35.8761 28.6701L23.1966 38.532ZM23.1966 31.4174L10.5171 21.5555L23.1966 11.6937L35.8761 21.5555L23.1966 31.4174ZM23.1966 27.8248L31.2974 21.5555L23.1966 15.2862L15.0958 21.5555L23.1966 27.8248Z" fill="white"/>
<path d="M23.1966 38.532L10.5171 28.6701L12.8417 26.9091L23.1966 34.9394L33.5515 26.9091L35.8761 28.6701L23.1966 38.532ZM23.1966 31.4174L10.5171 21.5555L23.1966 11.6937L35.8761 21.5555L23.1966 31.4174ZM23.1966 27.8248L31.2974 21.5555L23.1966 15.2862L15.0958 21.5555L23.1966 27.8248Z" fill="#D5D2B8" fill-opacity="0.2"/>
</g>
</g>
</g>
</g>
</svg>
