<svg width="47" height="49" viewBox="0 0 47 49" fill="none" xmlns="http://www.w3.org/2000/svg">
<g id="Group 56">
<path id="Rectangle 23" d="M0 4.2564C0 2.04726 1.79086 0.256409 4 0.256409H47.1795V49.0085H4C1.79086 49.0085 0 47.2177 0 45.0085V4.2564Z" fill="#46463D"/>
<g id="calendar_month">
<mask id="mask0_1806_1103" style="mask-type:alpha" maskUnits="userSpaceOnUse" x="7" y="8" width="33" height="33">
<rect id="Bounding box" x="7.29059" y="8.10257" width="32" height="32" fill="#D9D9D9"/>
</mask>
<g mask="url(#mask0_1806_1103)">
<g id="calendar_month_2">
<path d="M13.9573 37.4359C13.2239 37.4359 12.5961 37.1748 12.0739 36.6526C11.5517 36.1303 11.2906 35.5026 11.2906 34.7692V16.1026C11.2906 15.3692 11.5517 14.7415 12.0739 14.2192C12.5961 13.697 13.2239 13.4359 13.9573 13.4359H15.2906V10.7692H17.9573V13.4359H28.6239V10.7692H31.2906V13.4359H32.6239C33.3573 13.4359 33.985 13.697 34.5073 14.2192C35.0295 14.7415 35.2906 15.3692 35.2906 16.1026V34.7692C35.2906 35.5026 35.0295 36.1303 34.5073 36.6526C33.985 37.1748 33.3573 37.4359 32.6239 37.4359H13.9573ZM13.9573 34.7692H32.6239V21.4359H13.9573V34.7692ZM13.9573 18.7692H32.6239V16.1026H13.9573V18.7692ZM23.2906 26.7692C22.9128 26.7692 22.5961 26.6415 22.3406 26.3859C22.085 26.1303 21.9573 25.8137 21.9573 25.4359C21.9573 25.0581 22.085 24.7415 22.3406 24.4859C22.5961 24.2303 22.9128 24.1026 23.2906 24.1026C23.6684 24.1026 23.985 24.2303 24.2406 24.4859C24.4961 24.7415 24.6239 25.0581 24.6239 25.4359C24.6239 25.8137 24.4961 26.1303 24.2406 26.3859C23.985 26.6415 23.6684 26.7692 23.2906 26.7692ZM17.9573 26.7692C17.5795 26.7692 17.2628 26.6415 17.0073 26.3859C16.7517 26.1303 16.6239 25.8137 16.6239 25.4359C16.6239 25.0581 16.7517 24.7415 17.0073 24.4859C17.2628 24.2303 17.5795 24.1026 17.9573 24.1026C18.335 24.1026 18.6517 24.2303 18.9073 24.4859C19.1628 24.7415 19.2906 25.0581 19.2906 25.4359C19.2906 25.8137 19.1628 26.1303 18.9073 26.3859C18.6517 26.6415 18.335 26.7692 17.9573 26.7692ZM28.6239 26.7692C28.2461 26.7692 27.9295 26.6415 27.6739 26.3859C27.4184 26.1303 27.2906 25.8137 27.2906 25.4359C27.2906 25.0581 27.4184 24.7415 27.6739 24.4859C27.9295 24.2303 28.2461 24.1026 28.6239 24.1026C29.0017 24.1026 29.3184 24.2303 29.5739 24.4859C29.8295 24.7415 29.9573 25.0581 29.9573 25.4359C29.9573 25.8137 29.8295 26.1303 29.5739 26.3859C29.3184 26.6415 29.0017 26.7692 28.6239 26.7692ZM23.2906 32.1026C22.9128 32.1026 22.5961 31.9748 22.3406 31.7192C22.085 31.4637 21.9573 31.147 21.9573 30.7692C21.9573 30.3915 22.085 30.0748 22.3406 29.8192C22.5961 29.5637 22.9128 29.4359 23.2906 29.4359C23.6684 29.4359 23.985 29.5637 24.2406 29.8192C24.4961 30.0748 24.6239 30.3915 24.6239 30.7692C24.6239 31.147 24.4961 31.4637 24.2406 31.7192C23.985 31.9748 23.6684 32.1026 23.2906 32.1026ZM17.9573 32.1026C17.5795 32.1026 17.2628 31.9748 17.0073 31.7192C16.7517 31.4637 16.6239 31.147 16.6239 30.7692C16.6239 30.3915 16.7517 30.0748 17.0073 29.8192C17.2628 29.5637 17.5795 29.4359 17.9573 29.4359C18.335 29.4359 18.6517 29.5637 18.9073 29.8192C19.1628 30.0748 19.2906 30.3915 19.2906 30.7692C19.2906 31.147 19.1628 31.4637 18.9073 31.7192C18.6517 31.9748 18.335 32.1026 17.9573 32.1026ZM28.6239 32.1026C28.2461 32.1026 27.9295 31.9748 27.6739 31.7192C27.4184 31.4637 27.2906 31.147 27.2906 30.7692C27.2906 30.3915 27.4184 30.0748 27.6739 29.8192C27.9295 29.5637 28.2461 29.4359 28.6239 29.4359C29.0017 29.4359 29.3184 29.5637 29.5739 29.8192C29.8295 30.0748 29.9573 30.3915 29.9573 30.7692C29.9573 31.147 29.8295 31.4637 29.5739 31.7192C29.3184 31.9748 29.0017 32.1026 28.6239 32.1026Z" fill="white"/>
<path d="M13.9573 37.4359C13.2239 37.4359 12.5961 37.1748 12.0739 36.6526C11.5517 36.1303 11.2906 35.5026 11.2906 34.7692V16.1026C11.2906 15.3692 11.5517 14.7415 12.0739 14.2192C12.5961 13.697 13.2239 13.4359 13.9573 13.4359H15.2906V10.7692H17.9573V13.4359H28.6239V10.7692H31.2906V13.4359H32.6239C33.3573 13.4359 33.985 13.697 34.5073 14.2192C35.0295 14.7415 35.2906 15.3692 35.2906 16.1026V34.7692C35.2906 35.5026 35.0295 36.1303 34.5073 36.6526C33.985 37.1748 33.3573 37.4359 32.6239 37.4359H13.9573ZM13.9573 34.7692H32.6239V21.4359H13.9573V34.7692ZM13.9573 18.7692H32.6239V16.1026H13.9573V18.7692ZM23.2906 26.7692C22.9128 26.7692 22.5961 26.6415 22.3406 26.3859C22.085 26.1303 21.9573 25.8137 21.9573 25.4359C21.9573 25.0581 22.085 24.7415 22.3406 24.4859C22.5961 24.2303 22.9128 24.1026 23.2906 24.1026C23.6684 24.1026 23.985 24.2303 24.2406 24.4859C24.4961 24.7415 24.6239 25.0581 24.6239 25.4359C24.6239 25.8137 24.4961 26.1303 24.2406 26.3859C23.985 26.6415 23.6684 26.7692 23.2906 26.7692ZM17.9573 26.7692C17.5795 26.7692 17.2628 26.6415 17.0073 26.3859C16.7517 26.1303 16.6239 25.8137 16.6239 25.4359C16.6239 25.0581 16.7517 24.7415 17.0073 24.4859C17.2628 24.2303 17.5795 24.1026 17.9573 24.1026C18.335 24.1026 18.6517 24.2303 18.9073 24.4859C19.1628 24.7415 19.2906 25.0581 19.2906 25.4359C19.2906 25.8137 19.1628 26.1303 18.9073 26.3859C18.6517 26.6415 18.335 26.7692 17.9573 26.7692ZM28.6239 26.7692C28.2461 26.7692 27.9295 26.6415 27.6739 26.3859C27.4184 26.1303 27.2906 25.8137 27.2906 25.4359C27.2906 25.0581 27.4184 24.7415 27.6739 24.4859C27.9295 24.2303 28.2461 24.1026 28.6239 24.1026C29.0017 24.1026 29.3184 24.2303 29.5739 24.4859C29.8295 24.7415 29.9573 25.0581 29.9573 25.4359C29.9573 25.8137 29.8295 26.1303 29.5739 26.3859C29.3184 26.6415 29.0017 26.7692 28.6239 26.7692ZM23.2906 32.1026C22.9128 32.1026 22.5961 31.9748 22.3406 31.7192C22.085 31.4637 21.9573 31.147 21.9573 30.7692C21.9573 30.3915 22.085 30.0748 22.3406 29.8192C22.5961 29.5637 22.9128 29.4359 23.2906 29.4359C23.6684 29.4359 23.985 29.5637 24.2406 29.8192C24.4961 30.0748 24.6239 30.3915 24.6239 30.7692C24.6239 31.147 24.4961 31.4637 24.2406 31.7192C23.985 31.9748 23.6684 32.1026 23.2906 32.1026ZM17.9573 32.1026C17.5795 32.1026 17.2628 31.9748 17.0073 31.7192C16.7517 31.4637 16.6239 31.147 16.6239 30.7692C16.6239 30.3915 16.7517 30.0748 17.0073 29.8192C17.2628 29.5637 17.5795 29.4359 17.9573 29.4359C18.335 29.4359 18.6517 29.5637 18.9073 29.8192C19.1628 30.0748 19.2906 30.3915 19.2906 30.7692C19.2906 31.147 19.1628 31.4637 18.9073 31.7192C18.6517 31.9748 18.335 32.1026 17.9573 32.1026ZM28.6239 32.1026C28.2461 32.1026 27.9295 31.9748 27.6739 31.7192C27.4184 31.4637 27.2906 31.147 27.2906 30.7692C27.2906 30.3915 27.4184 30.0748 27.6739 29.8192C27.9295 29.5637 28.2461 29.4359 28.6239 29.4359C29.0017 29.4359 29.3184 29.5637 29.5739 29.8192C29.8295 30.0748 29.9573 30.3915 29.9573 30.7692C29.9573 31.147 29.8295 31.4637 29.5739 31.7192C29.3184 31.9748 29.0017 32.1026 28.6239 32.1026Z" fill="#D5D2B8" fill-opacity="0.2"/>
</g>
</g>
</g>
</g>
</svg>
