<?xml version="1.0" encoding="UTF-8"?>
<svg xmlns="http://www.w3.org/2000/svg" xmlns:xlink="http://www.w3.org/1999/xlink" width="128px" height="128px" viewBox="0 0 128 134" version="1.1">
<defs>
<filter id="alpha" filterUnits="objectBoundingBox" x="0%" y="0%" width="100%" height="100%">
  <feColorMatrix type="matrix" in="SourceGraphic" values="0 0 0 0 1 0 0 0 0 1 0 0 0 0 1 0 0 0 1 0"/>
</filter>
<mask id="mask0">
  <g filter="url(#alpha)">
<rect x="0" y="0" width="128" height="134" style="fill:rgb(0%,0%,0%);fill-opacity:0.6;stroke:none;"/>
  </g>
</mask>
<clipPath id="clip1">
  <rect x="0" y="0" width="128" height="134"/>
</clipPath>
<g id="surface5" clip-path="url(#clip1)">
<path style=" stroke:none;fill-rule:nonzero;fill:rgb(100%,100%,100%);fill-opacity:1;" d="M 35.980469 103.546875 C 28.121094 103.546875 22.148438 100.652344 18.066406 94.867188 C 13.984375 89.078125 12.042969 82.582031 12.25 75.375 L 9.492188 71.265625 C 8.371094 69.539062 6.507812 65.628906 3.90625 59.539062 C 1.300781 53.449219 0 45.785156 0 36.546875 C 0 26.089844 2.601562 17.382812 7.808594 10.429688 C 13.015625 3.476562 19.597656 0 27.558594 0 C 36.234375 0 43 3.832031 47.847656 11.496094 C 52.695312 19.160156 55.121094 27.511719 55.121094 36.546875 C 55.121094 42.433594 54.304688 47.863281 52.667969 52.839844 C 51.035156 57.8125 49.609375 61.824219 48.382812 64.867188 L 49.609375 66.847656 C 50.425781 68.269531 51.546875 70.527344 52.976562 73.625 C 54.40625 76.71875 55.121094 79.941406 55.121094 83.292969 C 55.121094 89.078125 53.308594 93.902344 49.683594 97.757812 C 46.0625 101.617188 41.492188 103.546875 35.980469 103.546875 Z M 19.90625 64.5625 L 36.746094 61.214844 C 38.074219 57.964844 39.425781 54.261719 40.804688 50.097656 C 42.183594 45.9375 42.871094 41.417969 42.871094 36.546875 C 42.871094 30.453125 41.46875 24.871094 38.660156 19.796875 C 35.851562 14.71875 32.152344 12.183594 27.558594 12.183594 C 22.964844 12.183594 19.265625 14.71875 16.460938 19.796875 C 13.652344 24.871094 12.25 30.453125 12.25 36.546875 C 12.25 42.941406 13.140625 48.601562 14.929688 53.523438 C 16.714844 58.449219 18.375 62.128906 19.90625 64.5625 Z M 35.980469 91.363281 C 37.921875 91.363281 39.554688 90.652344 40.878906 89.230469 C 42.207031 87.8125 42.871094 85.832031 42.871094 83.292969 C 42.871094 81.566406 42.460938 79.789062 41.644531 77.964844 C 40.828125 76.136719 40.011719 74.511719 39.195312 73.089844 L 24.496094 76.136719 C 24.496094 80.195312 25.390625 83.75 27.175781 86.796875 C 28.964844 89.839844 31.898438 91.363281 35.980469 91.363281 Z M 86.507812 134 C 80.996094 134 76.425781 132.070312 72.804688 128.214844 C 69.179688 124.355469 67.367188 119.535156 67.367188 113.746094 C 67.367188 110.398438 68.082031 107.175781 69.511719 104.078125 C 70.941406 100.980469 72.0625 98.722656 72.878906 97.300781 L 74.105469 95.324219 C 72.878906 92.277344 71.453125 88.265625 69.816406 83.292969 C 68.183594 78.320312 67.367188 72.886719 67.367188 67 C 67.367188 57.964844 69.792969 49.617188 74.640625 41.949219 C 79.488281 34.285156 86.25 30.453125 94.929688 30.453125 C 102.890625 30.453125 109.472656 33.929688 114.679688 40.886719 C 119.886719 47.839844 122.488281 56.542969 122.488281 67 C 122.488281 76.238281 121.1875 83.875 118.582031 89.917969 C 115.980469 95.957031 114.117188 99.839844 112.996094 101.566406 L 110.238281 105.828125 C 110.339844 113.035156 108.375 119.535156 104.34375 125.320312 C 100.3125 131.105469 94.367188 134 86.507812 134 Z M 102.582031 95.019531 C 104.113281 92.582031 105.773438 88.925781 107.558594 84.054688 C 109.347656 79.183594 110.238281 73.496094 110.238281 67 C 110.238281 60.910156 108.835938 55.324219 106.027344 50.25 C 103.222656 45.175781 99.519531 42.636719 94.929688 42.636719 C 90.335938 42.636719 86.632812 45.175781 83.828125 50.25 C 81.019531 55.324219 79.617188 60.910156 79.617188 67 C 79.617188 71.871094 80.304688 76.363281 81.683594 80.476562 C 83.0625 84.585938 84.414062 88.316406 85.742188 91.667969 Z M 86.507812 121.816406 C 90.589844 121.816406 93.523438 120.296875 95.3125 117.25 C 97.097656 114.203125 97.992188 110.652344 97.992188 106.589844 L 83.292969 103.546875 C 82.476562 104.96875 81.660156 106.589844 80.84375 108.417969 C 80.027344 110.246094 79.617188 112.023438 79.617188 113.746094 C 79.617188 115.777344 80.253906 117.628906 81.53125 119.304688 C 82.808594 120.980469 84.464844 121.816406 86.507812 121.816406 Z M 86.507812 121.816406 "/>
<path style=" stroke:none;fill-rule:nonzero;fill:rgb(83.529412%,82.352941%,72.156863%);fill-opacity:0.2;" d="M 35.980469 103.546875 C 28.121094 103.546875 22.148438 100.652344 18.066406 94.867188 C 13.984375 89.078125 12.042969 82.582031 12.25 75.375 L 9.492188 71.265625 C 8.371094 69.539062 6.507812 65.628906 3.90625 59.539062 C 1.300781 53.449219 0 45.785156 0 36.546875 C 0 26.089844 2.601562 17.382812 7.808594 10.429688 C 13.015625 3.476562 19.597656 0 27.558594 0 C 36.234375 0 43 3.832031 47.847656 11.496094 C 52.695312 19.160156 55.121094 27.511719 55.121094 36.546875 C 55.121094 42.433594 54.304688 47.863281 52.667969 52.839844 C 51.035156 57.8125 49.609375 61.824219 48.382812 64.867188 L 49.609375 66.847656 C 50.425781 68.269531 51.546875 70.527344 52.976562 73.625 C 54.40625 76.71875 55.121094 79.941406 55.121094 83.292969 C 55.121094 89.078125 53.308594 93.902344 49.683594 97.757812 C 46.0625 101.617188 41.492188 103.546875 35.980469 103.546875 Z M 19.90625 64.5625 L 36.746094 61.214844 C 38.074219 57.964844 39.425781 54.261719 40.804688 50.097656 C 42.183594 45.9375 42.871094 41.417969 42.871094 36.546875 C 42.871094 30.453125 41.46875 24.871094 38.660156 19.796875 C 35.851562 14.71875 32.152344 12.183594 27.558594 12.183594 C 22.964844 12.183594 19.265625 14.71875 16.460938 19.796875 C 13.652344 24.871094 12.25 30.453125 12.25 36.546875 C 12.25 42.941406 13.140625 48.601562 14.929688 53.523438 C 16.714844 58.449219 18.375 62.128906 19.90625 64.5625 Z M 35.980469 91.363281 C 37.921875 91.363281 39.554688 90.652344 40.878906 89.230469 C 42.207031 87.8125 42.871094 85.832031 42.871094 83.292969 C 42.871094 81.566406 42.460938 79.789062 41.644531 77.964844 C 40.828125 76.136719 40.011719 74.511719 39.195312 73.089844 L 24.496094 76.136719 C 24.496094 80.195312 25.390625 83.75 27.175781 86.796875 C 28.964844 89.839844 31.898438 91.363281 35.980469 91.363281 Z M 86.507812 134 C 80.996094 134 76.425781 132.070312 72.804688 128.214844 C 69.179688 124.355469 67.367188 119.535156 67.367188 113.746094 C 67.367188 110.398438 68.082031 107.175781 69.511719 104.078125 C 70.941406 100.980469 72.0625 98.722656 72.878906 97.300781 L 74.105469 95.324219 C 72.878906 92.277344 71.453125 88.265625 69.816406 83.292969 C 68.183594 78.320312 67.367188 72.886719 67.367188 67 C 67.367188 57.964844 69.792969 49.617188 74.640625 41.949219 C 79.488281 34.285156 86.25 30.453125 94.929688 30.453125 C 102.890625 30.453125 109.472656 33.929688 114.679688 40.886719 C 119.886719 47.839844 122.488281 56.542969 122.488281 67 C 122.488281 76.238281 121.1875 83.875 118.582031 89.917969 C 115.980469 95.957031 114.117188 99.839844 112.996094 101.566406 L 110.238281 105.828125 C 110.339844 113.035156 108.375 119.535156 104.34375 125.320312 C 100.3125 131.105469 94.367188 134 86.507812 134 Z M 102.582031 95.019531 C 104.113281 92.582031 105.773438 88.925781 107.558594 84.054688 C 109.347656 79.183594 110.238281 73.496094 110.238281 67 C 110.238281 60.910156 108.835938 55.324219 106.027344 50.25 C 103.222656 45.175781 99.519531 42.636719 94.929688 42.636719 C 90.335938 42.636719 86.632812 45.175781 83.828125 50.25 C 81.019531 55.324219 79.617188 60.910156 79.617188 67 C 79.617188 71.871094 80.304688 76.363281 81.683594 80.476562 C 83.0625 84.585938 84.414062 88.316406 85.742188 91.667969 Z M 86.507812 121.816406 C 90.589844 121.816406 93.523438 120.296875 95.3125 117.25 C 97.097656 114.203125 97.992188 110.652344 97.992188 106.589844 L 83.292969 103.546875 C 82.476562 104.96875 81.660156 106.589844 80.84375 108.417969 C 80.027344 110.246094 79.617188 112.023438 79.617188 113.746094 C 79.617188 115.777344 80.253906 117.628906 81.53125 119.304688 C 82.808594 120.980469 84.464844 121.816406 86.507812 121.816406 Z M 86.507812 121.816406 "/>
</g>
</defs>
<g id="surface1">
<use xlink:href="#surface5" mask="url(#mask0)"/>
</g>
</svg>
