<svg width="27" height="27" viewBox="0 0 27 27" fill="none" xmlns="http://www.w3.org/2000/svg">
<g id="forward">
<mask id="mask0_1972_2797" style="mask-type:alpha" maskUnits="userSpaceOnUse" x="0" y="0" width="27" height="27">
<rect id="Bounding box" width="27" height="27" fill="#D9D9D9"/>
</mask>
<g mask="url(#mask0_1972_2797)">
<path id="forward_2" d="M18 19.125L16.3969 17.55L21.5719 12.375L16.3969 7.2L18 5.625L24.75 12.375L18 19.125ZM2.25 21.375V16.875C2.25 15.3188 2.79844 13.9922 3.89531 12.8953C4.99219 11.7984 6.31875 11.25 7.875 11.25H14.8219L10.7719 7.2L12.375 5.625L19.125 12.375L12.375 19.125L10.7719 17.55L14.8219 13.5H7.875C6.9375 13.5 6.14062 13.8281 5.48438 14.4844C4.82812 15.1406 4.5 15.9375 4.5 16.875V21.375H2.25Z" fill="#771646"/>
</g>
</g>
</svg>
