<svg width="47" height="49" viewBox="0 0 47 49" fill="none" xmlns="http://www.w3.org/2000/svg">
<g id="Group 58">
<path id="Rectangle 23" d="M0 3.99999C0 1.79086 1.79086 0 4 0H47.1795V48.7521H4C1.79086 48.7521 0 46.9613 0 44.7521V3.99999Z" fill="#D5D2B8"/>
<g id="help">
<mask id="mask0_1806_1113" style="mask-type:alpha" maskUnits="userSpaceOnUse" x="6" y="7" width="35" height="34">
<rect id="Bounding box" x="6.29059" y="7" width="33.812" height="33.812" fill="white"/>
</mask>
<g mask="url(#mask0_1806_1113)">
<g id="help_2">
<path d="M23.1262 32.359C23.6193 32.359 24.0361 32.1887 24.3766 31.8483C24.717 31.5078 24.8873 31.091 24.8873 30.5979C24.8873 30.1049 24.717 29.6881 24.3766 29.3476C24.0361 29.0071 23.6193 28.8369 23.1262 28.8369C22.6331 28.8369 22.2163 29.0071 21.8759 29.3476C21.5354 29.6881 21.3652 30.1049 21.3652 30.5979C21.3652 31.091 21.5354 31.5078 21.8759 31.8483C22.2163 32.1887 22.6331 32.359 23.1262 32.359ZM21.8583 26.935H24.4646C24.4646 26.1601 24.5527 25.5496 24.7288 25.1035C24.9049 24.6574 25.4038 24.0469 26.2256 23.272C26.8361 22.6615 27.3175 22.0804 27.6697 21.5286C28.0219 20.9768 28.198 20.3135 28.198 19.5386C28.198 18.2237 27.7167 17.214 26.754 16.5096C25.7913 15.8052 24.6524 15.453 23.3375 15.453C21.9991 15.453 20.9132 15.8052 20.0796 16.5096C19.2461 17.214 18.6649 18.0593 18.3362 19.0455L20.6608 19.9613C20.7782 19.5386 21.0423 19.0807 21.4532 18.5877C21.8641 18.0946 22.4922 17.848 23.3375 17.848C24.0889 17.848 24.6524 18.0535 25.0281 18.4644C25.4038 18.8753 25.5917 19.3273 25.5917 19.8204C25.5917 20.29 25.4508 20.7302 25.169 21.1412C24.8873 21.5521 24.535 21.9336 24.1124 22.2858C23.0793 23.2016 22.4453 23.8943 22.2105 24.3639C21.9757 24.8335 21.8583 25.6905 21.8583 26.935ZM23.1967 37.9943C21.2478 37.9943 19.4163 37.6245 17.7022 36.8849C15.9881 36.1452 14.4971 35.1414 13.2292 33.8735C11.9612 32.6055 10.9574 31.1145 10.2178 29.4004C9.47816 27.6864 9.10834 25.8549 9.10834 23.906C9.10834 21.9571 9.47816 20.1256 10.2178 18.4115C10.9574 16.6975 11.9612 15.2065 13.2292 13.9385C14.4971 12.6706 15.9881 11.6668 17.7022 10.9271C19.4163 10.1875 21.2478 9.81767 23.1967 9.81767C25.1455 9.81767 26.977 10.1875 28.6911 10.9271C30.4052 11.6668 31.8962 12.6706 33.1641 13.9385C34.4321 15.2065 35.4359 16.6975 36.1755 18.4115C36.9152 20.1256 37.285 21.9571 37.285 23.906C37.285 25.8549 36.9152 27.6864 36.1755 29.4004C35.4359 31.1145 34.4321 32.6055 33.1641 33.8735C31.8962 35.1414 30.4052 36.1452 28.6911 36.8849C26.977 37.6245 25.1455 37.9943 23.1967 37.9943ZM23.1967 35.1766C26.343 35.1766 29.0081 34.0848 31.1918 31.9011C33.3755 29.7174 34.4673 27.0524 34.4673 23.906C34.4673 20.7596 33.3755 18.0946 31.1918 15.9109C29.0081 13.7272 26.343 12.6353 23.1967 12.6353C20.0503 12.6353 17.3852 13.7272 15.2015 15.9109C13.0178 18.0946 11.926 20.7596 11.926 23.906C11.926 27.0524 13.0178 29.7174 15.2015 31.9011C17.3852 34.0848 20.0503 35.1766 23.1967 35.1766Z" fill="white"/>
<path d="M23.1262 32.359C23.6193 32.359 24.0361 32.1887 24.3766 31.8483C24.717 31.5078 24.8873 31.091 24.8873 30.5979C24.8873 30.1049 24.717 29.6881 24.3766 29.3476C24.0361 29.0071 23.6193 28.8369 23.1262 28.8369C22.6331 28.8369 22.2163 29.0071 21.8759 29.3476C21.5354 29.6881 21.3652 30.1049 21.3652 30.5979C21.3652 31.091 21.5354 31.5078 21.8759 31.8483C22.2163 32.1887 22.6331 32.359 23.1262 32.359ZM21.8583 26.935H24.4646C24.4646 26.1601 24.5527 25.5496 24.7288 25.1035C24.9049 24.6574 25.4038 24.0469 26.2256 23.272C26.8361 22.6615 27.3175 22.0804 27.6697 21.5286C28.0219 20.9768 28.198 20.3135 28.198 19.5386C28.198 18.2237 27.7167 17.214 26.754 16.5096C25.7913 15.8052 24.6524 15.453 23.3375 15.453C21.9991 15.453 20.9132 15.8052 20.0796 16.5096C19.2461 17.214 18.6649 18.0593 18.3362 19.0455L20.6608 19.9613C20.7782 19.5386 21.0423 19.0807 21.4532 18.5877C21.8641 18.0946 22.4922 17.848 23.3375 17.848C24.0889 17.848 24.6524 18.0535 25.0281 18.4644C25.4038 18.8753 25.5917 19.3273 25.5917 19.8204C25.5917 20.29 25.4508 20.7302 25.169 21.1412C24.8873 21.5521 24.535 21.9336 24.1124 22.2858C23.0793 23.2016 22.4453 23.8943 22.2105 24.3639C21.9757 24.8335 21.8583 25.6905 21.8583 26.935ZM23.1967 37.9943C21.2478 37.9943 19.4163 37.6245 17.7022 36.8849C15.9881 36.1452 14.4971 35.1414 13.2292 33.8735C11.9612 32.6055 10.9574 31.1145 10.2178 29.4004C9.47816 27.6864 9.10834 25.8549 9.10834 23.906C9.10834 21.9571 9.47816 20.1256 10.2178 18.4115C10.9574 16.6975 11.9612 15.2065 13.2292 13.9385C14.4971 12.6706 15.9881 11.6668 17.7022 10.9271C19.4163 10.1875 21.2478 9.81767 23.1967 9.81767C25.1455 9.81767 26.977 10.1875 28.6911 10.9271C30.4052 11.6668 31.8962 12.6706 33.1641 13.9385C34.4321 15.2065 35.4359 16.6975 36.1755 18.4115C36.9152 20.1256 37.285 21.9571 37.285 23.906C37.285 25.8549 36.9152 27.6864 36.1755 29.4004C35.4359 31.1145 34.4321 32.6055 33.1641 33.8735C31.8962 35.1414 30.4052 36.1452 28.6911 36.8849C26.977 37.6245 25.1455 37.9943 23.1967 37.9943ZM23.1967 35.1766C26.343 35.1766 29.0081 34.0848 31.1918 31.9011C33.3755 29.7174 34.4673 27.0524 34.4673 23.906C34.4673 20.7596 33.3755 18.0946 31.1918 15.9109C29.0081 13.7272 26.343 12.6353 23.1967 12.6353C20.0503 12.6353 17.3852 13.7272 15.2015 15.9109C13.0178 18.0946 11.926 20.7596 11.926 23.906C11.926 27.0524 13.0178 29.7174 15.2015 31.9011C17.3852 34.0848 20.0503 35.1766 23.1967 35.1766Z" fill="#771646" />
</g>
</g>
</g>
</g>
</svg>
