<svg width="33" height="33" viewBox="0 0 33 33" fill="none" xmlns="http://www.w3.org/2000/svg">
<g id="block">
<mask id="mask0_1819_1288" style="mask-type:alpha" maskUnits="userSpaceOnUse" x="0" y="0" width="33" height="33">
<rect id="Bounding box" width="33" height="33" fill="#D9D9D9"/>
</mask>
<g mask="url(#mask0_1819_1288)">
<path id="block_2" d="M16.5 30.25C14.5979 30.25 12.8104 29.8891 11.1375 29.1672C9.46458 28.4453 8.00938 27.4656 6.77187 26.2281C5.53437 24.9906 4.55469 23.5354 3.83281 21.8625C3.11094 20.1896 2.75 18.4021 2.75 16.5C2.75 14.5979 3.11094 12.8104 3.83281 11.1375C4.55469 9.46458 5.53437 8.00938 6.77187 6.77187C8.00938 5.53437 9.46458 4.55469 11.1375 3.83281C12.8104 3.11094 14.5979 2.75 16.5 2.75C18.4021 2.75 20.1896 3.11094 21.8625 3.83281C23.5354 4.55469 24.9906 5.53437 26.2281 6.77187C27.4656 8.00938 28.4453 9.46458 29.1672 11.1375C29.8891 12.8104 30.25 14.5979 30.25 16.5C30.25 18.4021 29.8891 20.1896 29.1672 21.8625C28.4453 23.5354 27.4656 24.9906 26.2281 26.2281C24.9906 27.4656 23.5354 28.4453 21.8625 29.1672C20.1896 29.8891 18.4021 30.25 16.5 30.25ZM16.5 27.5C17.7375 27.5 18.9292 27.2995 20.075 26.8984C21.2208 26.4974 22.275 25.9188 23.2375 25.1625L7.8375 9.7625C7.08125 10.725 6.5026 11.7792 6.10156 12.925C5.70052 14.0708 5.5 15.2625 5.5 16.5C5.5 19.5708 6.56563 22.1719 8.69688 24.3031C10.8281 26.4344 13.4292 27.5 16.5 27.5ZM25.1625 23.2375C25.9188 22.275 26.4974 21.2208 26.8984 20.075C27.2995 18.9292 27.5 17.7375 27.5 16.5C27.5 13.4292 26.4344 10.8281 24.3031 8.69688C22.1719 6.56563 19.5708 5.5 16.5 5.5C15.2625 5.5 14.0708 5.70052 12.925 6.10156C11.7792 6.5026 10.725 7.08125 9.7625 7.8375L25.1625 23.2375Z" fill="#771646"/>
</g>
</g>
</svg>
