<svg width="34" height="34" viewBox="0 0 34 34" fill="none" xmlns="http://www.w3.org/2000/svg">
<path d="M17.5375 23.4125C17.9271 23.4125 18.2536 23.2807 18.5172 23.0172C18.7807 22.7536 18.9125 22.4271 18.9125 22.0375C18.9125 21.6479 18.7807 21.3214 18.5172 21.0578C18.2536 20.7943 17.9271 20.6625 17.5375 20.6625C17.1479 20.6625 16.8214 20.7943 16.5578 21.0578C16.2943 21.3214 16.1625 21.6479 16.1625 22.0375C16.1625 22.4271 16.2943 22.7536 16.5578 23.0172C16.8214 23.2807 17.1479 23.4125 17.5375 23.4125ZM16.1625 17.9125H18.9125V9.6625H16.1625V17.9125ZM17.5375 32.075L12.9313 27.5375H6.5375V21.1438L2 16.5375L6.5375 11.9313V5.5375H12.9313L17.5375 1L22.1438 5.5375H28.5375V11.9313L33.075 16.5375L28.5375 21.1438V27.5375H22.1438L17.5375 32.075ZM17.5375 28.225L20.975 24.7875H25.7875V19.975L29.225 16.5375L25.7875 13.1V8.2875H20.975L17.5375 4.85L14.1 8.2875H9.2875V13.1L5.85 16.5375L9.2875 19.975V24.7875H14.1L17.5375 28.225Z" fill="#771646"/>
</svg>
