<svg width="33" height="33" viewBox="0 0 33 33" fill="none" xmlns="http://www.w3.org/2000/svg">
<g id="brightness_alert">
<mask id="mask0_1903_157" style="mask-type:alpha" maskUnits="userSpaceOnUse" x="0" y="0" width="33" height="33">
<rect id="Bounding box" width="33" height="33" fill="#D9D9D9"/>
</mask>
<g mask="url(#mask0_1903_157)">
<path id="brightness_alert_2" d="M16.5 23.375C16.8896 23.375 17.2162 23.2432 17.4797 22.9797C17.7433 22.7161 17.875 22.3896 17.875 22C17.875 21.6104 17.7433 21.2838 17.4797 21.0203C17.2162 20.7568 16.8896 20.625 16.5 20.625C16.1104 20.625 15.7839 20.7568 15.5203 21.0203C15.2568 21.2838 15.125 21.6104 15.125 22C15.125 22.3896 15.2568 22.7161 15.5203 22.9797C15.7839 23.2432 16.1104 23.375 16.5 23.375ZM15.125 17.875H17.875V9.62499H15.125V17.875ZM16.5 32.0375L11.8938 27.5H5.50002V21.1062L0.962524 16.5L5.50002 11.8937V5.49999H11.8938L16.5 0.962494L21.1063 5.49999H27.5V11.8937L32.0375 16.5L27.5 21.1062V27.5H21.1063L16.5 32.0375ZM16.5 28.1875L19.9375 24.75H24.75V19.9375L28.1875 16.5L24.75 13.0625V8.24999H19.9375L16.5 4.81249L13.0625 8.24999H8.25002V13.0625L4.81252 16.5L8.25002 19.9375V24.75H13.0625L16.5 28.1875Z" fill="#771646"/>
</g>
</g>
</svg>
