<?xml version="1.0" encoding="UTF-8"?>
<svg xmlns="http://www.w3.org/2000/svg" xmlns:xlink="http://www.w3.org/1999/xlink" width="128px" height="128px" viewBox="0 0 128 122" version="1.1">
<g id="surface6" clip-path="url(#clip1)">
<path style=" stroke:none;fill-rule:nonzero;fill:#771646;" d="M 64 86.417969 C 65.511719 86.417969 66.777344 85.933594 67.800781 84.957031 C 68.824219 83.984375 69.335938 82.777344 69.335938 81.335938 C 69.335938 79.894531 68.824219 78.6875 67.800781 77.714844 C 66.777344 76.738281 65.511719 76.253906 64 76.253906 C 62.488281 76.253906 61.222656 76.738281 60.203125 77.714844 C 59.179688 78.6875 58.667969 79.894531 58.667969 81.335938 C 58.667969 82.777344 59.179688 83.984375 60.203125 84.957031 C 61.222656 85.933594 62.488281 86.417969 64 86.417969 Z M 58.667969 66.085938 L 69.335938 66.085938 L 69.335938 35.585938 L 58.667969 35.585938 Z M 64 118.445312 L 46.132812 101.667969 L 21.335938 101.667969 L 21.335938 78.03125 L 3.734375 61.003906 L 21.335938 43.972656 L 21.335938 20.335938 L 46.132812 20.335938 L 64 3.5625 L 81.867188 20.335938 L 106.667969 20.335938 L 106.667969 43.972656 L 124.269531 61.003906 L 106.667969 78.03125 L 106.667969 101.667969 L 81.867188 101.667969 Z M 64 104.210938 L 77.335938 91.503906 L 96 91.503906 L 96 73.710938 L 109.335938 61.003906 L 96 48.292969 L 96 30.503906 L 77.335938 30.503906 L 64 17.792969 L 50.667969 30.503906 L 32 30.503906 L 32 48.292969 L 18.667969 61.003906 L 32 73.710938 L 32 91.503906 L 50.667969 91.503906 Z M 64 104.210938 "/>
</g>
</svg>
