<?xml version="1.0" encoding="UTF-8"?>
<svg xmlns="http://www.w3.org/2000/svg" xmlns:xlink="http://www.w3.org/1999/xlink" width="128px" height="128px" viewBox="0 0 128 74" version="1.1">
<g id="surface1">
<path style=" stroke:none;fill-rule:nonzero;fill:#771646;" d="M 65.003906 59.199219 C 71.890625 59.199219 77.746094 57.042969 82.570312 52.726562 C 87.390625 48.410156 89.800781 43.167969 89.800781 37 C 89.800781 30.832031 87.390625 25.589844 82.570312 21.273438 C 77.746094 16.957031 71.890625 14.800781 65.003906 14.800781 C 58.113281 14.800781 52.257812 16.957031 47.4375 21.273438 C 42.613281 25.589844 40.203125 30.832031 40.203125 37 C 40.203125 43.167969 42.613281 48.410156 47.4375 52.726562 C 52.257812 57.042969 58.113281 59.199219 65.003906 59.199219 Z M 65.003906 50.320312 C 60.871094 50.320312 57.355469 49.023438 54.460938 46.433594 C 51.570312 43.84375 50.121094 40.699219 50.121094 37 C 50.121094 33.300781 51.570312 30.15625 54.460938 27.566406 C 57.355469 24.976562 60.871094 23.679688 65.003906 23.679688 C 69.136719 23.679688 72.648438 24.976562 75.542969 27.566406 C 78.4375 30.15625 79.882812 33.300781 79.882812 37 C 79.882812 40.699219 78.4375 43.84375 75.542969 46.433594 C 72.648438 49.023438 69.136719 50.320312 65.003906 50.320312 Z M 65.003906 74 C 51.59375 74 39.375 70.648438 28.355469 63.949219 C 17.332031 57.246094 9.339844 48.265625 4.378906 37 C 9.339844 25.734375 17.332031 16.753906 28.355469 10.050781 C 39.375 3.351562 51.59375 0 65.003906 0 C 78.414062 0 90.628906 3.351562 101.652344 10.050781 C 112.671875 16.753906 120.664062 25.734375 125.625 37 C 120.664062 48.265625 112.671875 57.246094 101.652344 63.949219 C 90.628906 70.648438 78.414062 74 65.003906 74 Z M 65.003906 64.132812 C 75.382812 64.132812 84.910156 61.6875 93.589844 56.796875 C 102.269531 51.902344 108.90625 45.304688 113.5 37 C 108.90625 28.695312 102.269531 22.097656 93.589844 17.203125 C 84.910156 12.3125 75.382812 9.867188 65.003906 9.867188 C 54.621094 9.867188 45.09375 12.3125 36.414062 17.203125 C 27.734375 22.097656 21.097656 28.695312 16.503906 37 C 21.097656 45.304688 27.734375 51.902344 36.414062 56.796875 C 45.09375 61.6875 54.621094 64.132812 65.003906 64.132812 Z M 65.003906 64.132812 "/>
</g>
</svg>
