<svg width="34" height="34" viewBox="0 0 34 34" fill="none" xmlns="http://www.w3.org/2000/svg">
<g id="visibility">
<mask id="mask0_1819_1279" style="mask-type:alpha" maskUnits="userSpaceOnUse" x="0" y="0" width="34" height="34">
<rect id="Bounding box" width="33.812" height="33.812" fill="#D9D9D9"/>
</mask>
<g mask="url(#mask0_1819_1279)">
<path id="visibility_2" d="M16.906 22.5413C18.667 22.5413 20.1639 21.9249 21.3966 20.6922C22.6293 19.4595 23.2457 17.9626 23.2457 16.2016C23.2457 14.4405 22.6293 12.9436 21.3966 11.7109C20.1639 10.4782 18.667 9.86181 16.906 9.86181C15.1449 9.86181 13.648 10.4782 12.4153 11.7109C11.1826 12.9436 10.5662 14.4405 10.5662 16.2016C10.5662 17.9626 11.1826 19.4595 12.4153 20.6922C13.648 21.9249 15.1449 22.5413 16.906 22.5413ZM16.906 20.0054C15.8493 20.0054 14.9512 19.6356 14.2116 18.8959C13.4719 18.1563 13.1021 17.2582 13.1021 16.2016C13.1021 15.1449 13.4719 14.2468 14.2116 13.5072C14.9512 12.7675 15.8493 12.3977 16.906 12.3977C17.9626 12.3977 18.8607 12.7675 19.6004 13.5072C20.34 14.2468 20.7098 15.1449 20.7098 16.2016C20.7098 17.2582 20.34 18.1563 19.6004 18.8959C18.8607 19.6356 17.9626 20.0054 16.906 20.0054ZM16.906 26.7678C13.4778 26.7678 10.3549 25.811 7.53723 23.8973C4.71957 21.9836 2.67676 19.4184 1.40881 16.2016C2.67676 12.9847 4.71957 10.4195 7.53723 8.50581C10.3549 6.59215 13.4778 5.63531 16.906 5.63531C20.3341 5.63531 23.457 6.59215 26.2747 8.50581C29.0924 10.4195 31.1352 12.9847 32.4031 16.2016C31.1352 19.4184 29.0924 21.9836 26.2747 23.8973C23.457 25.811 20.3341 26.7678 16.906 26.7678ZM16.906 23.9501C19.5593 23.9501 21.9954 23.2516 24.2143 21.8545C26.4332 20.4574 28.1297 18.5731 29.3037 16.2016C28.1297 13.83 26.4332 11.9457 24.2143 10.5486C21.9954 9.15152 19.5593 8.45298 16.906 8.45298C14.2527 8.45298 11.8166 9.15152 9.59765 10.5486C7.37874 11.9457 5.68227 13.83 4.50824 16.2016C5.68227 18.5731 7.37874 20.4574 9.59765 21.8545C11.8166 23.2516 14.2527 23.9501 16.906 23.9501Z" fill="#771646"/>
</g>
</g>
</svg>
