<svg width="36" height="37" viewBox="0 0 36 37" fill="none" xmlns="http://www.w3.org/2000/svg">
<g id="Group 62">
<path id="Rectangle 23" d="M0 4C0 1.79086 1.79086 0 4 0H31.8064C34.0156 0 35.8064 1.79086 35.8064 4V33C35.8064 35.2091 34.0156 37 31.8064 37H4.00001C1.79087 37 0 35.2091 0 33V4Z" fill="white"/>
<path id="Rectangle 23" d="M0 4C0 1.79086 1.79086 0 4 0H31.8064C34.0156 0 35.8064 1.79086 35.8064 4V33C35.8064 35.2091 34.0156 37 31.8064 37H4.00001C1.79087 37 0 35.2091 0 33V4Z" fill="#D5D2B8" fill-opacity="0.2"/>
<g id="location_searching">
<mask id="mask0_1968_1065" style="mask-type:alpha" maskUnits="userSpaceOnUse" x="7" y="7" width="22" height="22">
<rect id="Bounding box" x="7.58936" y="7.58942" width="21.0641" height="21.0641" fill="#D9D9D9"/>
</mask>
<g mask="url(#mask0_1968_1065)">
<path id="location_searching_2" d="M17.2438 27.7759V26.0205C15.4153 25.8157 13.8465 25.0588 12.5373 23.7496C11.2281 22.4404 10.4711 20.8715 10.2663 19.043H8.51099V17.2877H10.2663C10.4711 15.4592 11.2281 13.8904 12.5373 12.5812C13.8465 11.272 15.4153 10.515 17.2438 10.3102V8.55487H18.9992V10.3102C20.8276 10.515 22.3965 11.272 23.7057 12.5812C25.0149 13.8904 25.7719 15.4592 25.9767 17.2877H27.732V19.043H25.9767C25.7719 20.8715 25.0149 22.4404 23.7057 23.7496C22.3965 25.0588 20.8276 25.8157 18.9992 26.0205V27.7759H17.2438ZM18.1215 24.3091C19.8183 24.3091 21.2665 23.7093 22.466 22.5099C23.6655 21.3104 24.2652 19.8622 24.2652 18.1654C24.2652 16.4685 23.6655 15.0204 22.466 13.8209C21.2665 12.6214 19.8183 12.0217 18.1215 12.0217C16.4247 12.0217 14.9765 12.6214 13.777 13.8209C12.5775 15.0204 11.9778 16.4685 11.9778 18.1654C11.9778 19.8622 12.5775 21.3104 13.777 22.5099C14.9765 23.7093 16.4247 24.3091 18.1215 24.3091Z" fill="#771646"/>
</g>
</g>
</g>
</svg>
