<svg width="47" height="50" viewBox="0 0 47 50" fill="none" xmlns="http://www.w3.org/2000/svg">
<g id="Group 55">
<path id="Rectangle 23" d="M0 4.75213C0 2.54299 1.79086 0.752136 4 0.752136H47.1795V49.5043H4C1.79086 49.5043 0 47.7134 0 45.5043V4.75213Z" fill="white"/>
<path id="Rectangle 23" d="M0 4.75213C0 2.54299 1.79086 0.752136 4 0.752136H47.1795V49.5043H4C1.79086 49.5043 0 47.7134 0 45.5043V4.75213Z" fill="#D5D2B8" fill-opacity="0.2"/>
<g id="search">
<mask id="mask0_1806_1098" style="mask-type:alpha" maskUnits="userSpaceOnUse" x="6" y="8" width="35" height="35">
<rect id="Bounding box" x="6.29059" y="8.58262" width="33.812" height="33.812" fill="#D9D9D9"/>
</mask>
<g mask="url(#mask0_1806_1098)">
<g id="search_2">
<path d="M33.9037 38.1681L25.0281 29.2925C24.3236 29.856 23.5136 30.3021 22.5978 30.6308C21.6821 30.9596 20.7076 31.1239 19.6745 31.1239C17.1151 31.1239 14.949 30.2375 13.1763 28.4648C11.4035 26.692 10.5171 24.5259 10.5171 21.9665C10.5171 19.4071 11.4035 17.2411 13.1763 15.4683C14.949 13.6955 17.1151 12.8091 19.6745 12.8091C22.2339 12.8091 24.4 13.6955 26.1727 15.4683C27.9455 17.2411 28.8319 19.4071 28.8319 21.9665C28.8319 22.9997 28.6675 23.9741 28.3388 24.8899C28.0101 25.8056 27.564 26.6157 27.0004 27.3201L35.8761 36.1957L33.9037 38.1681ZM19.6745 28.3063C21.4355 28.3063 22.9324 27.6899 24.1651 26.4572C25.3979 25.2245 26.0142 23.7276 26.0142 21.9665C26.0142 20.2055 25.3979 18.7086 24.1651 17.4759C22.9324 16.2431 21.4355 15.6268 19.6745 15.6268C17.9135 15.6268 16.4166 16.2431 15.1838 17.4759C13.9511 18.7086 13.3348 20.2055 13.3348 21.9665C13.3348 23.7276 13.9511 25.2245 15.1838 26.4572C16.4166 27.6899 17.9135 28.3063 19.6745 28.3063Z" fill="white"/>
<path d="M33.9037 38.1681L25.0281 29.2925C24.3236 29.856 23.5136 30.3021 22.5978 30.6308C21.6821 30.9596 20.7076 31.1239 19.6745 31.1239C17.1151 31.1239 14.949 30.2375 13.1763 28.4648C11.4035 26.692 10.5171 24.5259 10.5171 21.9665C10.5171 19.4071 11.4035 17.2411 13.1763 15.4683C14.949 13.6955 17.1151 12.8091 19.6745 12.8091C22.2339 12.8091 24.4 13.6955 26.1727 15.4683C27.9455 17.2411 28.8319 19.4071 28.8319 21.9665C28.8319 22.9997 28.6675 23.9741 28.3388 24.8899C28.0101 25.8056 27.564 26.6157 27.0004 27.3201L35.8761 36.1957L33.9037 38.1681ZM19.6745 28.3063C21.4355 28.3063 22.9324 27.6899 24.1651 26.4572C25.3979 25.2245 26.0142 23.7276 26.0142 21.9665C26.0142 20.2055 25.3979 18.7086 24.1651 17.4759C22.9324 16.2431 21.4355 15.6268 19.6745 15.6268C17.9135 15.6268 16.4166 16.2431 15.1838 17.4759C13.9511 18.7086 13.3348 20.2055 13.3348 21.9665C13.3348 23.7276 13.9511 25.2245 15.1838 26.4572C16.4166 27.6899 17.9135 28.3063 19.6745 28.3063Z" fill="#771646" />
</g>
</g>
</g>
</g>
</svg>
