<svg width="47" height="49" viewBox="0 0 47 49" fill="none" xmlns="http://www.w3.org/2000/svg">
<g id="Group 58">
<path id="Rectangle 23" d="M0 4.00854C0 1.7994 1.79086 0.00854492 4 0.00854492H47.1795V48.7607H4C1.79086 48.7607 0 46.9698 0 44.7607V4.00854Z" fill="#46463D"/>
<g id="footprint">
<path d="M16.6375 31.6449C14.9692 31.6449 13.7017 31.0404 12.835 29.8313C11.9683 28.6222 11.5567 27.2646 11.6 25.7585L11.015 24.8995C10.7767 24.5388 10.3812 23.7222 9.82875 22.4495C9.27625 21.1767 9 19.5752 9 17.6449C9 15.4601 9.5525 13.6411 10.6575 12.1881C11.7625 10.7351 13.16 10.0085 14.85 10.0085C16.6917 10.0085 18.1271 10.8093 19.1562 12.4108C20.1854 14.0123 20.7 15.757 20.7 17.6449C20.7 18.8752 20.5267 20.0101 20.18 21.0495C19.8333 22.0888 19.53 22.9267 19.27 23.5631L19.53 23.9767C19.7033 24.2737 19.9417 24.7457 20.245 25.3926C20.5483 26.0396 20.7 26.7131 20.7 27.4131C20.7 28.6222 20.3154 29.6298 19.5462 30.4358C18.7771 31.2419 17.8075 31.6449 16.6375 31.6449ZM13.225 23.4995L16.8 22.7995C17.0817 22.1207 17.3687 21.3464 17.6612 20.4767C17.9537 19.607 18.1 18.6631 18.1 17.6449C18.1 16.3722 17.8021 15.2055 17.2062 14.1449C16.6104 13.0843 15.825 12.554 14.85 12.554C13.875 12.554 13.0896 13.0843 12.4937 14.1449C11.8979 15.2055 11.6 16.3722 11.6 17.6449C11.6 18.9813 11.7896 20.1638 12.1687 21.1926C12.5479 22.2214 12.9 22.9904 13.225 23.4995ZM16.6375 29.0995C17.0492 29.0995 17.3958 28.951 17.6775 28.654C17.9592 28.357 18.1 27.9434 18.1 27.4131C18.1 27.0525 18.0133 26.6813 17.84 26.2995C17.6667 25.9176 17.4933 25.5782 17.32 25.2813L14.2 25.9176C14.2 26.7661 14.3896 27.5085 14.7687 28.1449C15.1479 28.7813 15.7708 29.0995 16.6375 29.0995ZM27.3625 38.0085C26.1925 38.0085 25.2229 37.6055 24.4537 36.7995C23.6846 35.9934 23.3 34.9858 23.3 33.7767C23.3 33.0767 23.4517 32.4032 23.755 31.7563C24.0583 31.1093 24.2967 30.6373 24.47 30.3404L24.73 29.9267C24.47 29.2904 24.1667 28.4525 23.82 27.4131C23.4733 26.3737 23.3 25.2388 23.3 24.0085C23.3 22.1207 23.8146 20.376 24.8437 18.7745C25.8729 17.1729 27.3083 16.3722 29.15 16.3722C30.84 16.3722 32.2375 17.0987 33.3425 18.5517C34.4475 20.0048 35 21.8237 35 24.0085C35 25.9388 34.7238 27.5351 34.1713 28.7972C33.6187 30.0593 33.2233 30.8707 32.985 31.2313L32.4 32.1222C32.4217 33.6282 32.0046 34.9858 31.1488 36.1949C30.2929 37.404 29.0308 38.0085 27.3625 38.0085ZM30.775 29.8631C31.1 29.354 31.4521 28.5904 31.8312 27.5722C32.2104 26.554 32.4 25.3661 32.4 24.0085C32.4 22.7358 32.1021 21.5692 31.5062 20.5085C30.9104 19.4479 30.125 18.9176 29.15 18.9176C28.175 18.9176 27.3896 19.4479 26.7937 20.5085C26.1979 21.5692 25.9 22.7358 25.9 24.0085C25.9 25.0267 26.0462 25.9654 26.3388 26.8245C26.6313 27.6835 26.9183 28.4631 27.2 29.1631L30.775 29.8631ZM27.3625 35.4631C28.2292 35.4631 28.8521 35.1449 29.2312 34.5085C29.6104 33.8722 29.8 33.1298 29.8 32.2813L26.68 31.6449C26.5067 31.9419 26.3333 32.2813 26.16 32.6631C25.9867 33.0449 25.9 33.4161 25.9 33.7767C25.9 34.201 26.0354 34.5881 26.3062 34.9381C26.5771 35.2881 26.9292 35.4631 27.3625 35.4631Z" fill="white"/>
<path d="M16.6375 31.6449C14.9692 31.6449 13.7017 31.0404 12.835 29.8313C11.9683 28.6222 11.5567 27.2646 11.6 25.7585L11.015 24.8995C10.7767 24.5388 10.3812 23.7222 9.82875 22.4495C9.27625 21.1767 9 19.5752 9 17.6449C9 15.4601 9.5525 13.6411 10.6575 12.1881C11.7625 10.7351 13.16 10.0085 14.85 10.0085C16.6917 10.0085 18.1271 10.8093 19.1562 12.4108C20.1854 14.0123 20.7 15.757 20.7 17.6449C20.7 18.8752 20.5267 20.0101 20.18 21.0495C19.8333 22.0888 19.53 22.9267 19.27 23.5631L19.53 23.9767C19.7033 24.2737 19.9417 24.7457 20.245 25.3926C20.5483 26.0396 20.7 26.7131 20.7 27.4131C20.7 28.6222 20.3154 29.6298 19.5462 30.4358C18.7771 31.2419 17.8075 31.6449 16.6375 31.6449ZM13.225 23.4995L16.8 22.7995C17.0817 22.1207 17.3687 21.3464 17.6612 20.4767C17.9537 19.607 18.1 18.6631 18.1 17.6449C18.1 16.3722 17.8021 15.2055 17.2062 14.1449C16.6104 13.0843 15.825 12.554 14.85 12.554C13.875 12.554 13.0896 13.0843 12.4937 14.1449C11.8979 15.2055 11.6 16.3722 11.6 17.6449C11.6 18.9813 11.7896 20.1638 12.1687 21.1926C12.5479 22.2214 12.9 22.9904 13.225 23.4995ZM16.6375 29.0995C17.0492 29.0995 17.3958 28.951 17.6775 28.654C17.9592 28.357 18.1 27.9434 18.1 27.4131C18.1 27.0525 18.0133 26.6813 17.84 26.2995C17.6667 25.9176 17.4933 25.5782 17.32 25.2813L14.2 25.9176C14.2 26.7661 14.3896 27.5085 14.7687 28.1449C15.1479 28.7813 15.7708 29.0995 16.6375 29.0995ZM27.3625 38.0085C26.1925 38.0085 25.2229 37.6055 24.4537 36.7995C23.6846 35.9934 23.3 34.9858 23.3 33.7767C23.3 33.0767 23.4517 32.4032 23.755 31.7563C24.0583 31.1093 24.2967 30.6373 24.47 30.3404L24.73 29.9267C24.47 29.2904 24.1667 28.4525 23.82 27.4131C23.4733 26.3737 23.3 25.2388 23.3 24.0085C23.3 22.1207 23.8146 20.376 24.8437 18.7745C25.8729 17.1729 27.3083 16.3722 29.15 16.3722C30.84 16.3722 32.2375 17.0987 33.3425 18.5517C34.4475 20.0048 35 21.8237 35 24.0085C35 25.9388 34.7238 27.5351 34.1713 28.7972C33.6187 30.0593 33.2233 30.8707 32.985 31.2313L32.4 32.1222C32.4217 33.6282 32.0046 34.9858 31.1488 36.1949C30.2929 37.404 29.0308 38.0085 27.3625 38.0085ZM30.775 29.8631C31.1 29.354 31.4521 28.5904 31.8312 27.5722C32.2104 26.554 32.4 25.3661 32.4 24.0085C32.4 22.7358 32.1021 21.5692 31.5062 20.5085C30.9104 19.4479 30.125 18.9176 29.15 18.9176C28.175 18.9176 27.3896 19.4479 26.7937 20.5085C26.1979 21.5692 25.9 22.7358 25.9 24.0085C25.9 25.0267 26.0462 25.9654 26.3388 26.8245C26.6313 27.6835 26.9183 28.4631 27.2 29.1631L30.775 29.8631ZM27.3625 35.4631C28.2292 35.4631 28.8521 35.1449 29.2312 34.5085C29.6104 33.8722 29.8 33.1298 29.8 32.2813L26.68 31.6449C26.5067 31.9419 26.3333 32.2813 26.16 32.6631C25.9867 33.0449 25.9 33.4161 25.9 33.7767C25.9 34.201 26.0354 34.5881 26.3062 34.9381C26.5771 35.2881 26.9292 35.4631 27.3625 35.4631Z" fill="#D5D2B8" fill-opacity="0.2"/>
</g>
</g>
</svg>
