<?xml version="1.0" encoding="UTF-8"?>
<svg xmlns="http://www.w3.org/2000/svg" xmlns:xlink="http://www.w3.org/1999/xlink" width="2304" height="1093" class="svg-icon" viewBox="-1491 -966 2304 1093">
<filter id='inset-shadow'>
    <!-- Shadow offset -->
    <feOffset
            dx='0'
            dy='0'
          />
    <!-- Shadow blur -->
  <feGaussianBlur
            stdDeviation='20'
            result='offset-blur'
          />
    <!-- Invert drop shadow to make an inset shadow-->
    <feComposite
            operator='out'
            in='SourceGraphic'
            in2='offset-blur'
            result='inverse'
          />

    <!-- Placing shadow over element -->
  </filter>
<g style="filter: url(#inset-shadow);fill:blue" ><path class="custom-polygon leaflet-interactive" stroke="#222" stroke-opacity="1" stroke-width="0.5" stroke-linecap="round" stroke-linejoin="round" fill-opacity="0.504" fill-rule="evenodd" d="M0 0" aria-describedby="leaflet-tooltip-813"></path><path class="custom-polygon leaflet-interactive" stroke="#222" stroke-opacity="1" stroke-width="0.5" stroke-linecap="round" stroke-linejoin="round" fill-opacity="0.504" fill-rule="evenodd" d="M0 0" aria-describedby="leaflet-tooltip-812"></path><path class="custom-polygon leaflet-interactive" stroke="#222" stroke-opacity="1" stroke-width="0.5" stroke-linecap="round" stroke-linejoin="round" fill-opacity="0.504" fill-rule="evenodd" d="M0 0"></path><path class="custom-polygon leaflet-interactive" stroke="#222" stroke-opacity="1" stroke-width="0.5" stroke-linecap="round" stroke-linejoin="round" fill-opacity="0.504" fill-rule="evenodd" d="M0 0"></path><path class="custom-polygon leaflet-interactive" stroke="#222" stroke-opacity="1" stroke-width="0.5" stroke-linecap="round" stroke-linejoin="round" fill-opacity="0.504" fill-rule="evenodd" d="M0 0"></path><path class="custom-polygon leaflet-interactive" stroke="#222" stroke-opacity="1" stroke-width="0.5" stroke-linecap="round" stroke-linejoin="round" fill-opacity="0.504" fill-rule="evenodd" d="M0 0"></path><path class="custom-polygon leaflet-interactive" stroke="#222" stroke-opacity="1" stroke-width="0.5" stroke-linecap="round" stroke-linejoin="round" fill-opacity="0.504" fill-rule="evenodd" d="M0 0"></path><path class="custom-polygon leaflet-interactive" stroke="#222" stroke-opacity="1" stroke-width="0.5" stroke-linecap="round" stroke-linejoin="round" fill-opacity="0.504" fill-rule="evenodd" d="M0 0"></path><path class="custom-polygon leaflet-interactive" stroke="#222" stroke-opacity="1" stroke-width="0.5" stroke-linecap="round" stroke-linejoin="round" fill-opacity="0.504" fill-rule="evenodd" d="M0 0"></path><path class="custom-polygon leaflet-interactive" stroke="#222" stroke-opacity="1" stroke-width="0.5" stroke-linecap="round" stroke-linejoin="round" fill-opacity="0.504" fill-rule="evenodd" d="M0 0"></path><path class="custom-polygon leaflet-interactive" stroke="#222" stroke-opacity="1" stroke-width="0.5" stroke-linecap="round" stroke-linejoin="round" fill-opacity="0.504" fill-rule="evenodd" d="M0 0"></path><path class="custom-polygon leaflet-interactive" stroke="#222" stroke-opacity="1" stroke-width="0.5" stroke-linecap="round" stroke-linejoin="round" fill-opacity="0.504" fill-rule="evenodd" d="M0 0"></path><path class="custom-polygon leaflet-interactive" stroke="#222" stroke-opacity="1" stroke-width="0.5" stroke-linecap="round" stroke-linejoin="round" fill-opacity="0.504" fill-rule="evenodd" d="M0 0"></path><path class="custom-polygon leaflet-interactive" stroke="#222" stroke-opacity="1" stroke-width="0.5" stroke-linecap="round" stroke-linejoin="round" fill-opacity="0.504" fill-rule="evenodd" d="M0 0"></path><path class="custom-polygon leaflet-interactive" stroke="#222" stroke-opacity="1" stroke-width="0.5" stroke-linecap="round" stroke-linejoin="round" fill-opacity="0.504" fill-rule="evenodd" d="M0 0"></path><path class="custom-polygon leaflet-interactive" stroke="#222" stroke-opacity="1" stroke-width="0.5" stroke-linecap="round" stroke-linejoin="round" fill-opacity="0.504" fill-rule="evenodd" d="M0 0"></path><path class="custom-polygon leaflet-interactive" stroke="#222" stroke-opacity="1" stroke-width="0.5" stroke-linecap="round" stroke-linejoin="round" fill-opacity="0.504" fill-rule="evenodd" d="M0 0"></path><path class="custom-polygon leaflet-interactive" stroke="#222" stroke-opacity="1" stroke-width="0.5" stroke-linecap="round" stroke-linejoin="round" fill-opacity="0.504" fill-rule="evenodd" d="M0 0"></path><path class="custom-polygon leaflet-interactive" stroke="#222" stroke-opacity="1" stroke-width="0.5" stroke-linecap="round" stroke-linejoin="round" fill-opacity="0.504" fill-rule="evenodd" d="M0 0"></path><path class="custom-polygon leaflet-interactive" stroke="#222" stroke-opacity="1" stroke-width="0.5" stroke-linecap="round" stroke-linejoin="round" fill-opacity="0.504" fill-rule="evenodd" d="M0 0"></path><path class="custom-polygon leaflet-interactive" stroke="#222" stroke-opacity="1" stroke-width="0.5" stroke-linecap="round" stroke-linejoin="round" fill-opacity="0.504" fill-rule="evenodd" d="M0 0"></path><path class="custom-polygon leaflet-interactive" stroke="#222" stroke-opacity="1" stroke-width="0.5" stroke-linecap="round" stroke-linejoin="round" fill-opacity="0.504" fill-rule="evenodd" d="M0 0"></path><path class="custom-polygon leaflet-interactive" stroke="#222" stroke-opacity="1" stroke-width="0.5" stroke-linecap="round" stroke-linejoin="round" fill-opacity="0.504" fill-rule="evenodd" d="M0 0"></path><path class="custom-polygon leaflet-interactive" stroke="#222" stroke-opacity="1" stroke-width="0.5" stroke-linecap="round" stroke-linejoin="round" fill-opacity="0.504" fill-rule="evenodd" d="M0 0"></path><path class="custom-polygon leaflet-interactive" stroke="#222" stroke-opacity="1" stroke-width="0.5" stroke-linecap="round" stroke-linejoin="round" fill-opacity="0.504" fill-rule="evenodd" d="M0 0"></path><path class="custom-polygon leaflet-interactive" stroke="#222" stroke-opacity="1" stroke-width="0.5" stroke-linecap="round" stroke-linejoin="round" fill-opacity="0.504" fill-rule="evenodd" d="M0 0"></path><path class="custom-polygon leaflet-interactive" stroke="#222" stroke-opacity="1" stroke-width="0.5" stroke-linecap="round" stroke-linejoin="round" fill-opacity="0.504" fill-rule="evenodd" d="M0 0"></path><path class="custom-polygon leaflet-interactive" stroke="#222" stroke-opacity="1" stroke-width="0.5" stroke-linecap="round" stroke-linejoin="round" fill-opacity="0.504" fill-rule="evenodd" d="M0 0"></path><path class="custom-polygon leaflet-interactive" stroke="#222" stroke-opacity="1" stroke-width="0.5" stroke-linecap="round" stroke-linejoin="round" fill-opacity="0.504" fill-rule="evenodd" d="M0 0"></path><path class="custom-polygon leaflet-interactive" stroke="#222" stroke-opacity="1" stroke-width="0.5" stroke-linecap="round" stroke-linejoin="round" fill-opacity="0.504" fill-rule="evenodd" d="M0 0"></path><path class="custom-polygon leaflet-interactive" stroke="#222" stroke-opacity="1" stroke-width="0.5" stroke-linecap="round" stroke-linejoin="round" fill-opacity="0.504" fill-rule="evenodd" d="M0 0"></path><path class="custom-polygon leaflet-interactive" stroke="#222" stroke-opacity="1" stroke-width="0.5" stroke-linecap="round" stroke-linejoin="round" fill-opacity="0.504" fill-rule="evenodd" d="M0 0"></path><path class="custom-polygon leaflet-interactive" stroke="#222" stroke-opacity="1" stroke-width="0.5" stroke-linecap="round" stroke-linejoin="round" fill-opacity="0.504" fill-rule="evenodd" d="M0 0"></path><path class="custom-polygon leaflet-interactive" stroke="#222" stroke-opacity="1" stroke-width="0.5" stroke-linecap="round" stroke-linejoin="round" fill-opacity="0.504" fill-rule="evenodd" d="M0 0"></path><path class="custom-polygon leaflet-interactive" stroke="#222" stroke-opacity="1" stroke-width="0.5" stroke-linecap="round" stroke-linejoin="round" fill-opacity="0.504" fill-rule="evenodd" d="M0 0"></path><path class="custom-polygon leaflet-interactive" stroke="#222" stroke-opacity="1" stroke-width="0.5" stroke-linecap="round" stroke-linejoin="round" fill-opacity="0.504" fill-rule="evenodd" d="M0 0"></path><path class="custom-polygon leaflet-interactive" stroke="#222" stroke-opacity="1" stroke-width="0.5" stroke-linecap="round" stroke-linejoin="round" fill-opacity="0.504" fill-rule="evenodd" d="M0 0" aria-describedby="leaflet-tooltip-807"></path><path class="custom-polygon leaflet-interactive" stroke="#222" stroke-opacity="1" stroke-width="0.5" stroke-linecap="round" stroke-linejoin="round" fill-opacity="0.504" fill-rule="evenodd" d="M0 0"></path><path class="custom-polygon leaflet-interactive" stroke="#222" stroke-opacity="1" stroke-width="0.5" stroke-linecap="round" stroke-linejoin="round" fill-opacity="0.504" fill-rule="evenodd" d="M0 0"></path><path class="custom-polygon leaflet-interactive" stroke="#222" stroke-opacity="1" stroke-width="0.5" stroke-linecap="round" stroke-linejoin="round" fill-opacity="0.504" fill-rule="evenodd" d="M0 0" aria-describedby="leaflet-tooltip-1920"></path><path class="custom-polygon leaflet-interactive" stroke="#222" stroke-opacity="1" stroke-width="0.5" stroke-linecap="round" stroke-linejoin="round" fill-opacity="0.504" fill-rule="evenodd" d="M46 -787L48 -760L62 -726L71 -726L72 -737L98 -737L99 -708L76 -707L76 -698L67 -697L78 -634L78 -623L84 -593L84 -566L81 -551L75 -461L72 -440L120 -408L139 -397L173 -407L223 -434L316 -420L444 -392L627 -359L629 -363L726 -457L738 -463L774 -470L797 -481L814 -487L814 -966L601 -966L601 -954L487 -938L480 -966L443 -966L428 -958L424 -862L502 -862L510 -818L500 -816L505 -791L468 -783L453 -851L416 -851L421 -951L386 -938L323 -930L311 -926L270 -908L275 -893L235 -885L231 -893L162 -864L122 -849L72 -819L47 -798z"></path><path class="custom-polygon leaflet-interactive" stroke="#222" stroke-opacity="1" stroke-width="0.5" stroke-linecap="round" stroke-linejoin="round" fill-opacity="0.504" fill-rule="evenodd" d="M0 0"></path><path class="custom-polygon leaflet-interactive" stroke="#222" stroke-opacity="1" stroke-width="0.5" stroke-linecap="round" stroke-linejoin="round" fill-opacity="0.504" fill-rule="evenodd" d="M122 -385L138 -397L173 -408L223 -434L317 -419L499 -381L627 -359L627 -337L636 -321L650 -283L660 -168L707 -84L654 -82L654 -44L674 -44L673 -25L665 -14L648 -16L646 -6L631 -8L632 -19L624 -19L626 -36L490 -55L486 -54L481 -56L378 -66L270 -67L212 -71L211 -40L192 -41L188 -20L142 -16L141 -13L126 -16L98 -27L107 -93L129 -185L163 -215L204 -235L195 -261L231 -353L226 -384z"></path><path class="custom-polygon leaflet-interactive" stroke="#222" stroke-opacity="1" stroke-width="0.5" stroke-linecap="round" stroke-linejoin="round" fill-opacity="0.504" fill-rule="evenodd" d="M151 63L239 114L271 128L779 128L775 119L714 20L679 -21L673 -25L665 -14L648 -16L646 -6L631 -8L632 -19L624 -19L626 -36L608 -39L490 -55L486 -54L481 -56L378 -66L270 -67L212 -71L211 -40L192 -41L189 -20L142 -16L141 -13L127 -15L57 -44L-11 -75L-15 -73L50 -16L118 35z" aria-describedby="leaflet-tooltip-1608"></path><path class="custom-polygon leaflet-interactive" stroke="#222" stroke-opacity="1" stroke-width="0.5" stroke-linecap="round" stroke-linejoin="round" fill-opacity="0.504" fill-rule="evenodd" d="M627 -359L627 -337L635 -321L650 -283L660 -169L707 -84L654 -82L654 -45L674 -44L673 -25L679 -21L713 19L775 119L779 128L814 128L814 -487L773 -470L738 -463L726 -458L629 -363z" aria-describedby="leaflet-tooltip-1658"></path><path class="custom-polygon leaflet-interactive" stroke="#222" stroke-opacity="1" stroke-width="0.5" stroke-linecap="round" stroke-linejoin="round" fill-opacity="0.504" fill-rule="evenodd" d="M0 0"></path><path class="custom-polygon leaflet-interactive" stroke="#222" stroke-opacity="1" stroke-width="0.5" stroke-linecap="round" stroke-linejoin="round" fill-opacity="0.504" fill-rule="evenodd" d="M0 0"></path><path class="custom-polygon leaflet-interactive" stroke="#222" stroke-opacity="1" stroke-width="0.5" stroke-linecap="round" stroke-linejoin="round" fill-opacity="0.504" fill-rule="evenodd" d="M0 0" aria-describedby="leaflet-tooltip-2386"></path><path class="custom-polygon leaflet-interactive" stroke="#222" stroke-opacity="1" stroke-width="0.5" stroke-linecap="round" stroke-linejoin="round" fill-opacity="0.504" fill-rule="evenodd" d="M0 0"></path><path class="custom-polygon leaflet-interactive" stroke="#222" stroke-opacity="1" stroke-width="0.5" stroke-linecap="round" stroke-linejoin="round" fill-opacity="0.504" fill-rule="evenodd" d="M0 0"></path><path class="custom-polygon leaflet-interactive" stroke="#222" stroke-opacity="1" stroke-width="0.5" stroke-linecap="round" stroke-linejoin="round" fill-opacity="0.504" fill-rule="evenodd" d="M0 0" aria-describedby="leaflet-tooltip-1609"></path><path class="custom-polygon leaflet-interactive" stroke="#222" stroke-opacity="1" stroke-width="0.5" stroke-linecap="round" stroke-linejoin="round" fill-opacity="0.504" fill-rule="evenodd" d="M0 0"></path><path class="custom-polygon leaflet-interactive" stroke="#222" stroke-opacity="1" stroke-width="0.5" stroke-linecap="round" stroke-linejoin="round" fill-opacity="0.504" fill-rule="evenodd" d="M0 0"></path><path class="custom-polygon leaflet-interactive" stroke="#222" stroke-opacity="1" stroke-width="0.5" stroke-linecap="round" stroke-linejoin="round" fill-opacity="0.504" fill-rule="evenodd" d="M0 0"></path><path class="custom-polygon leaflet-interactive" stroke="#222" stroke-opacity="1" stroke-width="0.5" stroke-linecap="round" stroke-linejoin="round" fill-opacity="0.504" fill-rule="evenodd" d="M0 0"></path><path class="custom-polygon leaflet-interactive" stroke="#222" stroke-opacity="1" stroke-width="0.5" stroke-linecap="round" stroke-linejoin="round" fill-opacity="0.504" fill-rule="evenodd" d="M0 0"></path><path class="custom-polygon leaflet-interactive" stroke="#222" stroke-opacity="1" stroke-width="0.5" stroke-linecap="round" stroke-linejoin="round" fill-opacity="0.504" fill-rule="evenodd" d="M0 0"></path><path class="custom-polygon leaflet-interactive" stroke="#222" stroke-opacity="1" stroke-width="0.5" stroke-linecap="round" stroke-linejoin="round" fill-opacity="0.504" fill-rule="evenodd" d="M0 0"></path><path class="custom-polygon leaflet-interactive" stroke="#222" stroke-opacity="1" stroke-width="0.5" stroke-linecap="round" stroke-linejoin="round" fill-opacity="0.504" fill-rule="evenodd" d="M0 0"></path><path class="custom-polygon leaflet-interactive" stroke="#222" stroke-opacity="1" stroke-width="0.5" stroke-linecap="round" stroke-linejoin="round" fill-opacity="0.504" fill-rule="evenodd" d="M0 0"></path><path class="custom-polygon leaflet-interactive" stroke="#222" stroke-opacity="1" stroke-width="0.5" stroke-linecap="round" stroke-linejoin="round" fill-opacity="0.504" fill-rule="evenodd" d="M0 0"></path><path class="custom-polygon leaflet-interactive" stroke="#222" stroke-opacity="1" stroke-width="0.5" stroke-linecap="round" stroke-linejoin="round" fill-opacity="0.504" fill-rule="evenodd" d="M0 0"></path><path class="custom-polygon leaflet-interactive" stroke="#222" stroke-opacity="1" stroke-width="0.5" stroke-linecap="round" stroke-linejoin="round" fill-opacity="0.504" fill-rule="evenodd" d="M0 0"></path><path class="custom-polygon leaflet-interactive" stroke="#222" stroke-opacity="1" stroke-width="0.5" stroke-linecap="round" stroke-linejoin="round" fill-opacity="0.504" fill-rule="evenodd" d="M-761 -681L-796 -669L-841 -701L-885 -721L-925 -715L-870 -667L-826 -605L-803 -579L-760 -537L-756 -537L-744 -545L-715 -504L-658 -473L-553 -405L-499 -374L-434 -342L-309 -286L-143 -205L-99 -165L77 -104L107 -92L129 -185L163 -215L204 -235L196 -261L231 -354L227 -385L123 -385L49 -428L47 -440L51 -453L65 -463L72 -577L66 -640L56 -680L37 -729L35 -750L17 -749L9 -781L7 -797L108 -850L106 -871L125 -879L117 -902L122 -966L-395 -966L-379 -944L-367 -932L-357 -942L-342 -925L-356 -910L-308 -748L-313 -743L-315 -703L-334 -657L-368 -653L-384 -678L-401 -670L-416 -695L-431 -730L-408 -740L-412 -746L-418 -750L-431 -748L-434 -760L-490 -807L-702 -801L-734 -794L-733 -771L-728 -767L-735 -742L-728 -719z" aria-describedby="leaflet-tooltip-2707"></path><path class="custom-polygon leaflet-interactive" stroke="#222" stroke-opacity="1" stroke-width="0.5" stroke-linecap="round" stroke-linejoin="round" fill-opacity="0.504" fill-rule="evenodd" d="M0 0"></path><path class="custom-polygon leaflet-interactive" stroke="#222" stroke-opacity="1" stroke-width="0.5" stroke-linecap="round" stroke-linejoin="round" fill-opacity="0.504" fill-rule="evenodd" d="M0 0"></path><path class="custom-polygon leaflet-interactive" stroke="#222" stroke-opacity="1" stroke-width="0.5" stroke-linecap="round" stroke-linejoin="round" fill-opacity="0.504" fill-rule="evenodd" d="M0 0"></path><path class="custom-polygon leaflet-interactive" stroke="#222" stroke-opacity="1" stroke-width="0.5" stroke-linecap="round" stroke-linejoin="round" fill-opacity="0.504" fill-rule="evenodd" d="M0 0"></path><path class="custom-polygon leaflet-interactive" stroke="#222" stroke-opacity="1" stroke-width="0.5" stroke-linecap="round" stroke-linejoin="round" fill-opacity="0.504" fill-rule="evenodd" d="M0 0"></path><path class="custom-polygon leaflet-interactive" stroke="#222" stroke-opacity="1" stroke-width="0.5" stroke-linecap="round" stroke-linejoin="round" fill-opacity="0.504" fill-rule="evenodd" d="M0 0"></path><path class="custom-polygon leaflet-interactive" stroke="#222" stroke-opacity="1" stroke-width="0.5" stroke-linecap="round" stroke-linejoin="round" fill-opacity="0.504" fill-rule="evenodd" d="M0 0"></path><path class="custom-polygon leaflet-interactive" stroke="#222" stroke-opacity="1" stroke-width="0.5" stroke-linecap="round" stroke-linejoin="round" fill-opacity="0.504" fill-rule="evenodd" d="M0 0"></path><path class="custom-polygon leaflet-interactive" stroke="#222" stroke-opacity="1" stroke-width="0.5" stroke-linecap="round" stroke-linejoin="round" fill-opacity="0.504" fill-rule="evenodd" d="M0 0"></path><path class="custom-polygon leaflet-interactive" stroke="#222" stroke-opacity="1" stroke-width="0.5" stroke-linecap="round" stroke-linejoin="round" fill-opacity="0.504" fill-rule="evenodd" d="M0 0"></path><path class="custom-polygon leaflet-interactive" stroke="#222" stroke-opacity="1" stroke-width="0.5" stroke-linecap="round" stroke-linejoin="round" fill-opacity="0.504" fill-rule="evenodd" d="M0 0"></path><path class="custom-polygon leaflet-interactive" stroke="#222" stroke-opacity="1" stroke-width="0.5" stroke-linecap="round" stroke-linejoin="round" fill-opacity="0.504" fill-rule="evenodd" d="M0 0"></path><path class="custom-polygon leaflet-interactive" stroke="#222" stroke-opacity="1" stroke-width="0.5" stroke-linecap="round" stroke-linejoin="round" fill-opacity="0.504" fill-rule="evenodd" d="M0 0"></path><path class="custom-polygon leaflet-interactive" stroke="#222" stroke-opacity="1" stroke-width="0.5" stroke-linecap="round" stroke-linejoin="round" fill-opacity="0.504" fill-rule="evenodd" d="M0 0"></path><path class="custom-polygon leaflet-interactive" stroke="#222" stroke-opacity="1" stroke-width="0.5" stroke-linecap="round" stroke-linejoin="round" fill-opacity="0.504" fill-rule="evenodd" d="M0 0"></path><path class="custom-polygon leaflet-interactive" stroke="#222" stroke-opacity="1" stroke-width="0.5" stroke-linecap="round" stroke-linejoin="round" fill-opacity="0.504" fill-rule="evenodd" d="M0 0"></path><path class="custom-polygon leaflet-interactive" stroke="#222" stroke-opacity="1" stroke-width="0.5" stroke-linecap="round" stroke-linejoin="round" fill-opacity="0.504" fill-rule="evenodd" d="M0 0"></path><path class="custom-polygon leaflet-interactive" stroke="#222" stroke-opacity="1" stroke-width="0.5" stroke-linecap="round" stroke-linejoin="round" fill-opacity="0.504" fill-rule="evenodd" d="M0 0"></path><path class="custom-polygon leaflet-interactive" stroke="#222" stroke-opacity="1" stroke-width="0.5" stroke-linecap="round" stroke-linejoin="round" fill-opacity="0.504" fill-rule="evenodd" d="M0 0"></path><path class="custom-polygon leaflet-interactive" stroke="#222" stroke-opacity="1" stroke-width="0.5" stroke-linecap="round" stroke-linejoin="round" fill-opacity="0.504" fill-rule="evenodd" d="M0 0"></path><path class="custom-polygon leaflet-interactive" stroke="#222" stroke-opacity="1" stroke-width="0.5" stroke-linecap="round" stroke-linejoin="round" fill-opacity="0.504" fill-rule="evenodd" d="M0 0"></path><path class="custom-polygon leaflet-interactive" stroke="#222" stroke-opacity="1" stroke-width="0.5" stroke-linecap="round" stroke-linejoin="round" fill-opacity="0.504" fill-rule="evenodd" d="M0 0"></path><path class="custom-polygon leaflet-interactive" stroke="#222" stroke-opacity="1" stroke-width="0.5" stroke-linecap="round" stroke-linejoin="round" fill-opacity="0.504" fill-rule="evenodd" d="M0 0"></path><path class="custom-polygon leaflet-interactive" stroke="#222" stroke-opacity="1" stroke-width="0.5" stroke-linecap="round" stroke-linejoin="round" fill-opacity="0.504" fill-rule="evenodd" d="M0 0"></path><path class="custom-polygon leaflet-interactive" stroke="#222" stroke-opacity="1" stroke-width="0.5" stroke-linecap="round" stroke-linejoin="round" fill-opacity="0.504" fill-rule="evenodd" d="M0 0"></path><path class="custom-polygon leaflet-interactive" stroke="#222" stroke-opacity="1" stroke-width="0.5" stroke-linecap="round" stroke-linejoin="round" fill-opacity="0.504" fill-rule="evenodd" d="M0 0"></path><path class="custom-polygon leaflet-interactive" stroke="#222" stroke-opacity="1" stroke-width="0.5" stroke-linecap="round" stroke-linejoin="round" fill-opacity="0.504" fill-rule="evenodd" d="M0 0"></path><path class="custom-polygon leaflet-interactive" stroke="#222" stroke-opacity="1" stroke-width="0.5" stroke-linecap="round" stroke-linejoin="round" fill-opacity="0.504" fill-rule="evenodd" d="M0 0"></path><path class="custom-polygon leaflet-interactive" stroke="#222" stroke-opacity="1" stroke-width="0.5" stroke-linecap="round" stroke-linejoin="round" fill-opacity="0.504" fill-rule="evenodd" d="M0 0"></path><path class="custom-polygon leaflet-interactive" stroke="#222" stroke-opacity="1" stroke-width="0.5" stroke-linecap="round" stroke-linejoin="round" fill-opacity="0.504" fill-rule="evenodd" d="M0 0"></path><path class="custom-polygon leaflet-interactive" stroke="#222" stroke-opacity="1" stroke-width="0.5" stroke-linecap="round" stroke-linejoin="round" fill-opacity="0.504" fill-rule="evenodd" d="M0 0"></path><path class="custom-polygon leaflet-interactive" stroke="#222" stroke-opacity="1" stroke-width="0.5" stroke-linecap="round" stroke-linejoin="round" fill-opacity="0.504" fill-rule="evenodd" d="M0 0"></path><path class="custom-polygon leaflet-interactive" stroke="#222" stroke-opacity="1" stroke-width="0.5" stroke-linecap="round" stroke-linejoin="round" fill-opacity="0.504" fill-rule="evenodd" d="M0 0"></path><path class="custom-polygon leaflet-interactive" stroke="#222" stroke-opacity="1" stroke-width="0.5" stroke-linecap="round" stroke-linejoin="round" fill-opacity="0.504" fill-rule="evenodd" d="M0 0"></path><path class="custom-polygon leaflet-interactive" stroke="#222" stroke-opacity="1" stroke-width="0.5" stroke-linecap="round" stroke-linejoin="round" fill-opacity="0.504" fill-rule="evenodd" d="M0 0"></path><path class="custom-polygon leaflet-interactive" stroke="#222" stroke-opacity="1" stroke-width="0.5" stroke-linecap="round" stroke-linejoin="round" fill-opacity="0.504" fill-rule="evenodd" d="M0 0"></path><path class="custom-polygon leaflet-interactive" stroke="#222" stroke-opacity="1" stroke-width="0.5" stroke-linecap="round" stroke-linejoin="round" fill-opacity="0.504" fill-rule="evenodd" d="M0 0"></path><path class="custom-polygon leaflet-interactive" stroke="#222" stroke-opacity="1" stroke-width="0.5" stroke-linecap="round" stroke-linejoin="round" fill-opacity="0.504" fill-rule="evenodd" d="M0 0"></path><path class="custom-polygon leaflet-interactive" stroke="#222" stroke-opacity="1" stroke-width="0.5" stroke-linecap="round" stroke-linejoin="round" fill-opacity="0.504" fill-rule="evenodd" d="M0 0"></path><path class="custom-polygon leaflet-interactive" stroke="#222" stroke-opacity="1" stroke-width="0.5" stroke-linecap="round" stroke-linejoin="round" fill-opacity="0.504" fill-rule="evenodd" d="M0 0"></path><path class="custom-polygon leaflet-interactive" stroke="#222" stroke-opacity="1" stroke-width="0.5" stroke-linecap="round" stroke-linejoin="round" fill-opacity="0.504" fill-rule="evenodd" d="M0 0"></path><path class="custom-polygon leaflet-interactive" stroke="#222" stroke-opacity="1" stroke-width="0.5" stroke-linecap="round" stroke-linejoin="round" fill-opacity="0.504" fill-rule="evenodd" d="M0 0"></path><path class="custom-polygon leaflet-interactive" stroke="#222" stroke-opacity="1" stroke-width="0.5" stroke-linecap="round" stroke-linejoin="round" fill-opacity="0.504" fill-rule="evenodd" d="M0 0"></path><path class="custom-polygon leaflet-interactive" stroke="#222" stroke-opacity="1" stroke-width="0.5" stroke-linecap="round" stroke-linejoin="round" fill-opacity="0.504" fill-rule="evenodd" d="M0 0"></path><path class="custom-polygon leaflet-interactive" stroke="#222" stroke-opacity="1" stroke-width="0.5" stroke-linecap="round" stroke-linejoin="round" fill-opacity="0.504" fill-rule="evenodd" d="M0 0"></path><path class="custom-polygon leaflet-interactive" stroke="#222" stroke-opacity="1" stroke-width="0.5" stroke-linecap="round" stroke-linejoin="round" fill-opacity="0.504" fill-rule="evenodd" d="M0 0"></path></g>
</svg>