<svg width="34" height="34" viewBox="0 0 34 34" fill="none" xmlns="http://www.w3.org/2000/svg">
<path d="M16.75 30.5C14.8479 30.5 13.0604 30.1391 11.3875 29.4172C9.71458 28.6953 8.25938 27.7156 7.02187 26.4781C5.78437 25.2406 4.80469 23.7854 4.08281 22.1125C3.36094 20.4396 3 18.6521 3 16.75C3 14.8479 3.36094 13.0604 4.08281 11.3875C4.80469 9.71458 5.78437 8.25938 7.02187 7.02187C8.25938 5.78437 9.71458 4.80469 11.3875 4.08281C13.0604 3.36094 14.8479 3 16.75 3C18.6521 3 20.4396 3.36094 22.1125 4.08281C23.7854 4.80469 25.2406 5.78437 26.4781 7.02187C27.7156 8.25938 28.6953 9.71458 29.4172 11.3875C30.1391 13.0604 30.5 14.8479 30.5 16.75C30.5 18.6521 30.1391 20.4396 29.4172 22.1125C28.6953 23.7854 27.7156 25.2406 26.4781 26.4781C25.2406 27.7156 23.7854 28.6953 22.1125 29.4172C20.4396 30.1391 18.6521 30.5 16.75 30.5ZM16.75 27.75C17.9875 27.75 19.1792 27.5495 20.325 27.1484C21.4708 26.7474 22.525 26.1688 23.4875 25.4125L8.0875 10.0125C7.33125 10.975 6.7526 12.0292 6.35156 13.175C5.95052 14.3208 5.75 15.5125 5.75 16.75C5.75 19.8208 6.81563 22.4219 8.94688 24.5531C11.0781 26.6844 13.6792 27.75 16.75 27.75ZM25.4125 23.4875C26.1688 22.525 26.7474 21.4708 27.1484 20.325C27.5495 19.1792 27.75 17.9875 27.75 16.75C27.75 13.6792 26.6844 11.0781 24.5531 8.94688C22.4219 6.81563 19.8208 5.75 16.75 5.75C15.5125 5.75 14.3208 5.95052 13.175 6.35156C12.0292 6.7526 10.975 7.33125 10.0125 8.0875L25.4125 23.4875Z" fill="#771646"/>
</svg>
