<?xml version="1.0" encoding="UTF-8"?>
<svg xmlns="http://www.w3.org/2000/svg" xmlns:xlink="http://www.w3.org/1999/xlink" width="128px" height="128px" viewBox="0 0 128 128" version="1.1">
<g id="surface1">
<path style=" stroke:none;fill-rule:nonzero;fill:rgb(77.254902%,13.333333%,17.254902%);fill-opacity:1;" d="M 53.894531 0 L 72.421875 0 C 102.1875 0 126.316406 24.128906 126.316406 53.894531 L 126.316406 72.421875 C 126.316406 102.1875 102.1875 126.316406 72.421875 126.316406 L 53.894531 126.316406 C 24.128906 126.316406 0 102.1875 0 72.421875 L 0 53.894531 C 0 24.128906 24.128906 0 53.894531 0 Z M 53.894531 0 "/>
<path style=" stroke:none;fill-rule:nonzero;fill:rgb(100%,100%,100%);fill-opacity:1;" d="M 63.03125 81.980469 C 64.105469 81.980469 65.003906 81.617188 65.730469 80.890625 C 66.457031 80.164062 66.820312 79.261719 66.820312 78.1875 C 66.820312 77.117188 66.457031 76.214844 65.730469 75.488281 C 65.003906 74.761719 64.105469 74.398438 63.03125 74.398438 C 61.957031 74.398438 61.058594 74.761719 60.332031 75.488281 C 59.605469 76.214844 59.242188 77.117188 59.242188 78.1875 C 59.242188 79.261719 59.605469 80.164062 60.332031 80.890625 C 61.058594 81.617188 61.957031 81.980469 63.03125 81.980469 Z M 59.242188 66.820312 L 66.820312 66.820312 L 66.820312 44.085938 L 59.242188 44.085938 Z M 63.03125 105.851562 L 50.335938 93.347656 L 32.714844 93.347656 L 32.714844 75.726562 L 20.210938 63.03125 L 32.714844 50.335938 L 32.714844 32.714844 L 50.335938 32.714844 L 63.03125 20.210938 L 75.726562 32.714844 L 93.347656 32.714844 L 93.347656 50.335938 L 105.851562 63.03125 L 93.347656 75.726562 L 93.347656 93.347656 L 75.726562 93.347656 Z M 63.03125 95.242188 L 72.503906 85.769531 L 85.769531 85.769531 L 85.769531 72.503906 L 95.242188 63.03125 L 85.769531 53.558594 L 85.769531 40.292969 L 72.503906 40.292969 L 63.03125 30.820312 L 53.558594 40.292969 L 40.292969 40.292969 L 40.292969 53.558594 L 30.820312 63.03125 L 40.292969 72.503906 L 40.292969 85.769531 L 53.558594 85.769531 Z M 63.03125 95.242188 "/>
<path style=" stroke:none;fill-rule:nonzero;fill:rgb(83.529412%,82.352941%,72.156863%);fill-opacity:0.2;" d="M 63.03125 81.980469 C 64.105469 81.980469 65.003906 81.617188 65.730469 80.890625 C 66.457031 80.164062 66.820312 79.261719 66.820312 78.1875 C 66.820312 77.117188 66.457031 76.214844 65.730469 75.488281 C 65.003906 74.761719 64.105469 74.398438 63.03125 74.398438 C 61.957031 74.398438 61.058594 74.761719 60.332031 75.488281 C 59.605469 76.214844 59.242188 77.117188 59.242188 78.1875 C 59.242188 79.261719 59.605469 80.164062 60.332031 80.890625 C 61.058594 81.617188 61.957031 81.980469 63.03125 81.980469 Z M 59.242188 66.820312 L 66.820312 66.820312 L 66.820312 44.085938 L 59.242188 44.085938 Z M 63.03125 105.851562 L 50.335938 93.347656 L 32.714844 93.347656 L 32.714844 75.726562 L 20.210938 63.03125 L 32.714844 50.335938 L 32.714844 32.714844 L 50.335938 32.714844 L 63.03125 20.210938 L 75.726562 32.714844 L 93.347656 32.714844 L 93.347656 50.335938 L 105.851562 63.03125 L 93.347656 75.726562 L 93.347656 93.347656 L 75.726562 93.347656 Z M 63.03125 95.242188 L 72.503906 85.769531 L 85.769531 85.769531 L 85.769531 72.503906 L 95.242188 63.03125 L 85.769531 53.558594 L 85.769531 40.292969 L 72.503906 40.292969 L 63.03125 30.820312 L 53.558594 40.292969 L 40.292969 40.292969 L 40.292969 53.558594 L 30.820312 63.03125 L 40.292969 72.503906 L 40.292969 85.769531 L 53.558594 85.769531 Z M 63.03125 95.242188 "/>
</g>
</svg>
