<svg width="20" height="20" viewBox="10 10 27 30" fill="none" xmlns="http://www.w3.org/2000/svg">
<g id="layers_2">
<path d="M23.1966 38.532L10.5171 28.6701L12.8417 26.9091L23.1966 34.9394L33.5515 26.9091L35.8761 28.6701L23.1966 38.532ZM23.1966 31.4174L10.5171 21.5555L23.1966 11.6937L35.8761 21.5555L23.1966 31.4174ZM23.1966 27.8248L31.2974 21.5555L23.1966 15.2862L15.0958 21.5555L23.1966 27.8248Z" fill="white"/>
<path d="M23.1966 38.532L10.5171 28.6701L12.8417 26.9091L23.1966 34.9394L33.5515 26.9091L35.8761 28.6701L23.1966 38.532ZM23.1966 31.4174L10.5171 21.5555L23.1966 11.6937L35.8761 21.5555L23.1966 31.4174ZM23.1966 27.8248L31.2974 21.5555L23.1966 15.2862L15.0958 21.5555L23.1966 27.8248Z" fill="#000" fill-opacity="0.5"/>
</g>
</svg>
