<svg width="58" height="59" viewBox="0 0 58 59" fill="none" xmlns="http://www.w3.org/2000/svg">
<mask id="mask0_2576_1597" style="mask-type:alpha" maskUnits="userSpaceOnUse" x="0" y="0" width="58" height="59">
<rect x="0.0656128" y="0.905029" width="57.7366" height="57.7366" fill="#D9D9D9"/>
</mask>
<g mask="url(#mask0_2576_1597)">
<path style=" stroke:none;fill-rule:nonzero;fill:#771646;" d="M39.7595 24.3603C38.7572 24.3603 37.9051 24.0095 37.2035 23.3078C36.5018 22.6062 36.151 21.7541 36.151 20.7518C36.151 19.7494 36.5018 18.8974 37.2035 18.1957C37.9051 17.4941 38.7572 17.1432 39.7595 17.1432C40.7619 17.1432 41.6139 17.4941 42.3156 18.1957C43.0172 18.8974 43.3681 19.7494 43.3681 20.7518C43.3681 21.7541 43.0172 22.6062 42.3156 23.3078C41.6139 24.0095 40.7619 24.3603 39.7595 24.3603ZM18.1083 24.3603C17.1059 24.3603 16.2539 24.0095 15.5522 23.3078C14.8506 22.6062 14.4998 21.7541 14.4998 20.7518C14.4998 19.7494 14.8506 18.8974 15.5522 18.1957C16.2539 17.4941 17.1059 17.1432 18.1083 17.1432C19.1107 17.1432 19.9627 17.4941 20.6643 18.1957C21.366 18.8974 21.7168 19.7494 21.7168 20.7518C21.7168 21.7541 21.366 22.6062 20.6643 23.3078C19.9627 24.0095 19.1107 24.3603 18.1083 24.3603ZM28.9339 30.976C27.9315 30.976 27.0795 30.6251 26.3779 29.9235C25.6762 29.2218 25.3254 28.3698 25.3254 27.3674C25.3254 26.3651 25.6762 25.513 26.3779 24.8114C27.0795 24.1097 27.9315 23.7589 28.9339 23.7589C29.9363 23.7589 30.7883 24.1097 31.49 24.8114C32.1916 25.513 32.5425 26.3651 32.5425 27.3674C32.5425 28.3698 32.1916 29.2218 31.49 29.9235C30.7883 30.6251 29.9363 30.976 28.9339 30.976ZM28.9339 17.7447C27.9315 17.7447 27.0795 17.3938 26.3779 16.6922C25.6762 15.9905 25.3254 15.1385 25.3254 14.1361C25.3254 13.1338 25.6762 12.2817 26.3779 11.5801C27.0795 10.8784 27.9315 10.5276 28.9339 10.5276C29.9363 10.5276 30.7883 10.8784 31.49 11.5801C32.1916 12.2817 32.5425 13.1338 32.5425 14.1361C32.5425 15.1385 32.1916 15.9905 31.49 16.6922C30.7883 17.3938 29.9363 17.7447 28.9339 17.7447ZM28.9339 49.0187C28.132 49.0187 27.3201 48.9585 26.4981 48.8382C25.6762 48.7179 24.8843 48.5576 24.1225 48.3571V39.7567C24.1225 38.3534 24.5936 37.1406 25.5359 36.1181C26.4781 35.0957 27.6108 34.5845 28.9339 34.5845C30.257 34.5845 31.3897 35.0957 32.332 36.1181C33.2742 37.1406 33.7453 38.3534 33.7453 39.7567V48.3571C32.9835 48.5576 32.1916 48.7179 31.3697 48.8382C30.5477 48.9585 29.7358 49.0187 28.9339 49.0187ZM20.514 47.0941C19.7121 46.7733 18.9403 46.4125 18.1985 46.0115C17.4568 45.6106 16.7451 45.1696 16.0635 44.6884C14.9408 43.8865 14.0487 42.8441 13.3871 41.561C12.7256 40.278 12.3948 38.9148 12.3948 37.4713C12.3948 36.4289 12.2845 35.4566 12.064 34.5544C11.8435 33.6523 11.4526 32.8003 10.8912 31.9984C10.4903 31.4772 9.73849 30.6853 8.63589 29.6228C7.53328 28.5603 6.52088 27.5679 5.5987 26.6457C5.15766 26.2047 4.93713 25.6434 4.93713 24.9617C4.93713 24.2801 5.15766 23.7188 5.5987 23.2778C6.03974 22.8367 6.60107 22.6162 7.28268 22.6162C7.9643 22.6162 8.52562 22.8367 8.96667 23.2778L18.1684 31.9984C18.9703 32.7201 19.5617 33.5721 19.9426 34.5544C20.3235 35.5368 20.514 36.5492 20.514 37.5916V47.0941ZM37.3538 47.0941V37.5916C37.3538 36.5492 37.5543 35.5267 37.9553 34.5244C38.3562 33.522 38.9376 32.68 39.6994 31.9984L48.9012 23.2778C49.3823 22.8367 49.9537 22.6162 50.6152 22.6162C51.2768 22.6162 51.8281 22.8367 52.2691 23.2778C52.7102 23.7188 52.9307 24.2801 52.9307 24.9617C52.9307 25.6434 52.7102 26.2047 52.2691 26.6457C51.3469 27.5679 50.3345 28.5502 49.2319 29.5927C48.1293 30.6352 47.3776 31.4371 46.9766 31.9984C46.4153 32.8003 46.0244 33.6523 45.8038 34.5544C45.5833 35.4566 45.473 36.4289 45.473 37.4713C45.473 38.9148 45.1423 40.288 44.4807 41.5911C43.8191 42.8942 42.907 43.9467 41.7442 44.7486C41.1027 45.1896 40.4111 45.6106 39.6693 46.0115C38.9276 46.4125 38.1557 46.7733 37.3538 47.0941Z" fill="white"/>
<path style=" stroke:none;fill-rule:nonzero;fill:#771646;" d="M39.7595 24.3603C38.7572 24.3603 37.9051 24.0095 37.2035 23.3078C36.5018 22.6062 36.151 21.7541 36.151 20.7518C36.151 19.7494 36.5018 18.8974 37.2035 18.1957C37.9051 17.4941 38.7572 17.1432 39.7595 17.1432C40.7619 17.1432 41.6139 17.4941 42.3156 18.1957C43.0172 18.8974 43.3681 19.7494 43.3681 20.7518C43.3681 21.7541 43.0172 22.6062 42.3156 23.3078C41.6139 24.0095 40.7619 24.3603 39.7595 24.3603ZM18.1083 24.3603C17.1059 24.3603 16.2539 24.0095 15.5522 23.3078C14.8506 22.6062 14.4998 21.7541 14.4998 20.7518C14.4998 19.7494 14.8506 18.8974 15.5522 18.1957C16.2539 17.4941 17.1059 17.1432 18.1083 17.1432C19.1107 17.1432 19.9627 17.4941 20.6643 18.1957C21.366 18.8974 21.7168 19.7494 21.7168 20.7518C21.7168 21.7541 21.366 22.6062 20.6643 23.3078C19.9627 24.0095 19.1107 24.3603 18.1083 24.3603ZM28.9339 30.976C27.9315 30.976 27.0795 30.6251 26.3779 29.9235C25.6762 29.2218 25.3254 28.3698 25.3254 27.3674C25.3254 26.3651 25.6762 25.513 26.3779 24.8114C27.0795 24.1097 27.9315 23.7589 28.9339 23.7589C29.9363 23.7589 30.7883 24.1097 31.49 24.8114C32.1916 25.513 32.5425 26.3651 32.5425 27.3674C32.5425 28.3698 32.1916 29.2218 31.49 29.9235C30.7883 30.6251 29.9363 30.976 28.9339 30.976ZM28.9339 17.7447C27.9315 17.7447 27.0795 17.3938 26.3779 16.6922C25.6762 15.9905 25.3254 15.1385 25.3254 14.1361C25.3254 13.1338 25.6762 12.2817 26.3779 11.5801C27.0795 10.8784 27.9315 10.5276 28.9339 10.5276C29.9363 10.5276 30.7883 10.8784 31.49 11.5801C32.1916 12.2817 32.5425 13.1338 32.5425 14.1361C32.5425 15.1385 32.1916 15.9905 31.49 16.6922C30.7883 17.3938 29.9363 17.7447 28.9339 17.7447ZM28.9339 49.0187C28.132 49.0187 27.3201 48.9585 26.4981 48.8382C25.6762 48.7179 24.8843 48.5576 24.1225 48.3571V39.7567C24.1225 38.3534 24.5936 37.1406 25.5359 36.1181C26.4781 35.0957 27.6108 34.5845 28.9339 34.5845C30.257 34.5845 31.3897 35.0957 32.332 36.1181C33.2742 37.1406 33.7453 38.3534 33.7453 39.7567V48.3571C32.9835 48.5576 32.1916 48.7179 31.3697 48.8382C30.5477 48.9585 29.7358 49.0187 28.9339 49.0187ZM20.514 47.0941C19.7121 46.7733 18.9403 46.4125 18.1985 46.0115C17.4568 45.6106 16.7451 45.1696 16.0635 44.6884C14.9408 43.8865 14.0487 42.8441 13.3871 41.561C12.7256 40.278 12.3948 38.9148 12.3948 37.4713C12.3948 36.4289 12.2845 35.4566 12.064 34.5544C11.8435 33.6523 11.4526 32.8003 10.8912 31.9984C10.4903 31.4772 9.73849 30.6853 8.63589 29.6228C7.53328 28.5603 6.52088 27.5679 5.5987 26.6457C5.15766 26.2047 4.93713 25.6434 4.93713 24.9617C4.93713 24.2801 5.15766 23.7188 5.5987 23.2778C6.03974 22.8367 6.60107 22.6162 7.28268 22.6162C7.9643 22.6162 8.52562 22.8367 8.96667 23.2778L18.1684 31.9984C18.9703 32.7201 19.5617 33.5721 19.9426 34.5544C20.3235 35.5368 20.514 36.5492 20.514 37.5916V47.0941ZM37.3538 47.0941V37.5916C37.3538 36.5492 37.5543 35.5267 37.9553 34.5244C38.3562 33.522 38.9376 32.68 39.6994 31.9984L48.9012 23.2778C49.3823 22.8367 49.9537 22.6162 50.6152 22.6162C51.2768 22.6162 51.8281 22.8367 52.2691 23.2778C52.7102 23.7188 52.9307 24.2801 52.9307 24.9617C52.9307 25.6434 52.7102 26.2047 52.2691 26.6457C51.3469 27.5679 50.3345 28.5502 49.2319 29.5927C48.1293 30.6352 47.3776 31.4371 46.9766 31.9984C46.4153 32.8003 46.0244 33.6523 45.8038 34.5544C45.5833 35.4566 45.473 36.4289 45.473 37.4713C45.473 38.9148 45.1423 40.288 44.4807 41.5911C43.8191 42.8942 42.907 43.9467 41.7442 44.7486C41.1027 45.1896 40.4111 45.6106 39.6693 46.0115C38.9276 46.4125 38.1557 46.7733 37.3538 47.0941Z" fill="#D5D2B8" fill-opacity="0.2"/>
</g>
</svg>
