<svg width="33" height="33" viewBox="0 0 86 87" fill="none" xmlns="http://www.w3.org/2000/svg">
<mask id="mask0_2576_1590" style="mask-type:alpha" maskUnits="userSpaceOnUse" x="0" y="0" width="86" height="87">
<rect x="0.292908" y="0.599365" width="85.7071" height="85.7071" fill="#D9D9D9"/>
</mask>
<g mask="url(#mask0_2576_1590)">
<path d="M59.2165 35.4178C57.7286 35.4178 56.4638 34.897 55.4222 33.8554C54.3806 32.8138 53.8598 31.5491 53.8598 30.0611C53.8598 28.5731 54.3806 27.3083 55.4222 26.2668C56.4638 25.2252 57.7286 24.7044 59.2165 24.7044C60.7045 24.7044 61.9693 25.2252 63.0109 26.2668C64.0524 27.3083 64.5732 28.5731 64.5732 30.0611C64.5732 31.5491 64.0524 32.8138 63.0109 33.8554C61.9693 34.897 60.7045 35.4178 59.2165 35.4178ZM27.0764 35.4178C25.5884 35.4178 24.3236 34.897 23.282 33.8554C22.2405 32.8138 21.7197 31.5491 21.7197 30.0611C21.7197 28.5731 22.2405 27.3083 23.282 26.2668C24.3236 25.2252 25.5884 24.7044 27.0764 24.7044C28.5643 24.7044 29.8291 25.2252 30.8707 26.2668C31.9123 27.3083 32.4331 28.5731 32.4331 30.0611C32.4331 31.5491 31.9123 32.8138 30.8707 33.8554C29.8291 34.897 28.5643 35.4178 27.0764 35.4178ZM43.1465 45.2384C41.6585 45.2384 40.3937 44.7176 39.3521 43.676C38.3106 42.6344 37.7898 41.3697 37.7898 39.8817C37.7898 38.3937 38.3106 37.1289 39.3521 36.0874C40.3937 35.0458 41.6585 34.525 43.1465 34.525C44.6344 34.525 45.8992 35.0458 46.9408 36.0874C47.9824 37.1289 48.5031 38.3937 48.5031 39.8817C48.5031 41.3697 47.9824 42.6344 46.9408 43.676C45.8992 44.7176 44.6344 45.2384 43.1465 45.2384ZM43.1465 25.5972C41.6585 25.5972 40.3937 25.0764 39.3521 24.0348C38.3106 22.9932 37.7898 21.7285 37.7898 20.2405C37.7898 18.7525 38.3106 17.4877 39.3521 16.4462C40.3937 15.4046 41.6585 14.8838 43.1465 14.8838C44.6344 14.8838 45.8992 15.4046 46.9408 16.4462C47.9824 17.4877 48.5031 18.7525 48.5031 20.2405C48.5031 21.7285 47.9824 22.9932 46.9408 24.0348C45.8992 25.0764 44.6344 25.5972 43.1465 25.5972ZM43.1465 72.0218C41.9561 72.0218 40.7508 71.9326 39.5307 71.754C38.3106 71.5755 37.1351 71.3374 36.0042 71.0398V58.273C36.0042 56.1898 36.7035 54.3894 38.1022 52.8717C39.5009 51.3539 41.1823 50.5951 43.1465 50.5951C45.1106 50.5951 46.792 51.3539 48.1907 52.8717C49.5894 54.3894 50.2887 56.1898 50.2887 58.273V71.0398C49.1579 71.3374 47.9824 71.5755 46.7622 71.754C45.5421 71.9326 44.3368 72.0218 43.1465 72.0218ZM30.6475 69.1649C29.4571 68.6888 28.3114 68.1531 27.2103 67.5579C26.1092 66.9627 25.0527 66.308 24.0409 65.5938C22.3744 64.4034 21.0501 62.856 20.068 60.9514C19.086 59.0467 18.5949 57.0231 18.5949 54.8804C18.5949 53.3329 18.4313 51.8896 18.1039 50.5504C17.7766 49.2113 17.1963 47.9465 16.363 46.7561C15.7678 45.9824 14.6518 44.8069 13.0151 43.2296C11.3783 41.6524 9.87544 40.1793 8.5065 38.8104C7.8518 38.1556 7.52444 37.3224 7.52444 36.3106C7.52444 35.2987 7.8518 34.4655 8.5065 33.8108C9.16121 33.1561 9.99448 32.8287 11.0063 32.8287C12.0181 32.8287 12.8514 33.1561 13.5061 33.8108L27.1657 46.7561C28.356 47.8274 29.2339 49.0922 29.7994 50.5504C30.3648 52.0086 30.6475 53.5115 30.6475 55.059V69.1649ZM55.6454 69.1649V55.059C55.6454 53.5115 55.943 51.9938 56.5382 50.5058C57.1334 49.0178 57.9964 47.7679 59.1273 46.7561L72.7868 33.8108C73.501 33.1561 74.3492 32.8287 75.3313 32.8287C76.3133 32.8287 77.1317 33.1561 77.7864 33.8108C78.4411 34.4655 78.7685 35.2987 78.7685 36.3106C78.7685 37.3224 78.4411 38.1556 77.7864 38.8104C76.4175 40.1793 74.9146 41.6375 73.2779 43.185C71.6411 44.7325 70.5251 45.9228 69.9299 46.7561C69.0967 47.9465 68.5163 49.2113 68.189 50.5504C67.8616 51.8896 67.698 53.3329 67.698 54.8804C67.698 57.0231 67.2069 59.0616 66.2249 60.996C65.2428 62.9304 63.8888 64.4927 62.1627 65.6831C61.2104 66.3378 60.1837 66.9627 59.0826 67.5579C57.9815 68.1531 56.8358 68.6888 55.6454 69.1649Z" fill="#771646"/>
</g>
</svg>