<svg width="26" height="27" viewBox="0 0 26 27" fill="none" xmlns="http://www.w3.org/2000/svg">
<path d="M23.9038 26.1681L15.0281 17.2925C14.3237 17.856 13.5136 18.3021 12.5979 18.6308C11.6821 18.9596 10.7077 19.1239 9.67456 19.1239C7.11518 19.1239 4.9491 18.2375 3.17632 16.4648C1.40354 14.692 0.517151 12.5259 0.517151 9.96653C0.517151 7.40715 1.40354 5.24107 3.17632 3.46829C4.9491 1.69551 7.11518 0.80912 9.67456 0.80912C12.2339 0.80912 14.4 1.69551 16.1728 3.46829C17.9456 5.24107 18.832 7.40715 18.832 9.96653C18.832 10.9997 18.6676 11.9741 18.3389 12.8899C18.0101 13.8056 17.564 14.6157 17.0005 15.3201L25.8761 24.1957L23.9038 26.1681ZM9.67456 16.3063C11.4356 16.3063 12.9325 15.6899 14.1652 14.4572C15.3979 13.2245 16.0143 11.7276 16.0143 9.96653C16.0143 8.20549 15.3979 6.7086 14.1652 5.47588C12.9325 4.24315 11.4356 3.62678 9.67456 3.62678C7.91352 3.62678 6.41663 4.24315 5.18391 5.47588C3.95118 6.7086 3.33481 8.20549 3.33481 9.96653C3.33481 11.7276 3.95118 13.2245 5.18391 14.4572C6.41663 15.6899 7.91352 16.3063 9.67456 16.3063Z" fill="#46463D"/>
<path d="M23.9038 26.1681L15.0281 17.2925C14.3237 17.856 13.5136 18.3021 12.5979 18.6308C11.6821 18.9596 10.7077 19.1239 9.67456 19.1239C7.11518 19.1239 4.9491 18.2375 3.17632 16.4648C1.40354 14.692 0.517151 12.5259 0.517151 9.96653C0.517151 7.40715 1.40354 5.24107 3.17632 3.46829C4.9491 1.69551 7.11518 0.80912 9.67456 0.80912C12.2339 0.80912 14.4 1.69551 16.1728 3.46829C17.9456 5.24107 18.832 7.40715 18.832 9.96653C18.832 10.9997 18.6676 11.9741 18.3389 12.8899C18.0101 13.8056 17.564 14.6157 17.0005 15.3201L25.8761 24.1957L23.9038 26.1681ZM9.67456 16.3063C11.4356 16.3063 12.9325 15.6899 14.1652 14.4572C15.3979 13.2245 16.0143 11.7276 16.0143 9.96653C16.0143 8.20549 15.3979 6.7086 14.1652 5.47588C12.9325 4.24315 11.4356 3.62678 9.67456 3.62678C7.91352 3.62678 6.41663 4.24315 5.18391 5.47588C3.95118 6.7086 3.33481 8.20549 3.33481 9.96653C3.33481 11.7276 3.95118 13.2245 5.18391 14.4572C6.41663 15.6899 7.91352 16.3063 9.67456 16.3063Z" fill="#D5D2B8" fill-opacity="0.2"/>
</svg>
