<svg width="16" height="16" viewBox="8 8 20 21" fill="none" xmlns="http://www.w3.org/2000/svg">
<g id="Group 59">
<path id="Union" fill-rule="evenodd" clip-rule="evenodd" d="M14.6985 26.207C15.7664 26.6678 16.9073 26.8982 18.1214 26.8982C19.3356 26.8982 20.4765 26.6678 21.5444 26.207C22.6122 25.7462 23.5411 25.1209 24.331 24.331C25.1209 23.5411 25.7462 22.6122 26.207 21.5444C26.6678 20.4765 26.8982 19.3356 26.8982 18.1214C26.8982 16.9073 26.6678 15.7664 26.207 14.6985C25.7462 13.6307 25.1209 12.7018 24.331 11.9119C23.5411 11.122 22.6122 10.4967 21.5444 10.0359C20.4765 9.57512 19.3356 9.34473 18.1214 9.34473C16.9073 9.34473 15.7664 9.57512 14.6985 10.0359C13.6307 10.4967 12.7018 11.122 11.9119 11.9119C11.122 12.7018 10.4967 13.6307 10.0359 14.6985C9.57512 15.7664 9.34473 16.9073 9.34473 18.1214C9.34473 19.3356 9.57512 20.4765 10.0359 21.5444C10.4967 22.6122 11.122 23.5411 11.9119 24.331C12.7018 25.1209 13.6307 25.7462 14.6985 26.207ZM23.1022 23.1022C21.7418 24.4626 20.0816 25.1428 18.1214 25.1428C16.1613 25.1428 14.501 24.4626 13.1407 23.1022C11.7803 21.7418 11.1001 20.0816 11.1001 18.1214C11.1001 16.1613 11.7803 14.501 13.1407 13.1407C14.501 11.7803 16.1613 11.1001 18.1214 11.1001C20.0816 11.1001 21.7418 11.7803 23.1022 13.1407C24.4626 14.501 25.1428 16.1613 25.1428 18.1214C25.1428 20.0816 24.4626 21.7418 23.1022 23.1022ZM22.6819 17.2833H13.5747V18.8012H22.6819V17.2833Z" fill="#000" fill-opacity="0.6"/>
</g>
</svg>
