<svg width="16" height="16" viewBox="8 8 20 21" fill="none" xmlns="http://www.w3.org/2000/svg">
<g id="add_circle">
<path id="add_circle_2" d="M17.2438 22.5098H18.9991V18.9991H22.5098V17.2438H18.9991V13.7331H17.2438V17.2438H13.7331V18.9991H17.2438V22.5098ZM18.1214 26.8982C16.9073 26.8982 15.7664 26.6678 14.6985 26.207C13.6307 25.7462 12.7018 25.1209 11.9119 24.331C11.122 23.5411 10.4967 22.6122 10.0359 21.5444C9.57512 20.4765 9.34473 19.3356 9.34473 18.1214C9.34473 16.9073 9.57512 15.7664 10.0359 14.6985C10.4967 13.6307 11.122 12.7018 11.9119 11.9119C12.7018 11.122 13.6307 10.4967 14.6985 10.0359C15.7664 9.57512 16.9073 9.34473 18.1214 9.34473C19.3356 9.34473 20.4765 9.57512 21.5444 10.0359C22.6122 10.4967 23.5411 11.122 24.331 11.9119C25.1209 12.7018 25.7462 13.6307 26.207 14.6985C26.6678 15.7664 26.8982 16.9073 26.8982 18.1214C26.8982 19.3356 26.6678 20.4765 26.207 21.5444C25.7462 22.6122 25.1209 23.5411 24.331 24.331C23.5411 25.1209 22.6122 25.7462 21.5444 26.207C20.4765 26.6678 19.3356 26.8982 18.1214 26.8982ZM18.1214 25.1428C20.0816 25.1428 21.7418 24.4626 23.1022 23.1022C24.4626 21.7418 25.1428 20.0816 25.1428 18.1214C25.1428 16.1613 24.4626 14.501 23.1022 13.1407C21.7418 11.7803 20.0816 11.1001 18.1214 11.1001C16.1613 11.1001 14.501 11.7803 13.1407 13.1407C11.7803 14.501 11.1001 16.1613 11.1001 18.1214C11.1001 20.0816 11.7803 21.7418 13.1407 23.1022C14.501 24.4626 16.1613 25.1428 18.1214 25.1428Z" fill="#000" fill-opacity="0.6"/>
</g>
</svg>
